<svg width="23" height="22" viewBox="0 0 23 22" fill="none" xmlns="http://www.w3.org/2000/svg">
<path fill-rule="evenodd" clip-rule="evenodd" d="M6.13296 1.76084L4.59836 0.219667C1.97259 2.20212 0.219024 5.27887 0 8.79564H2.19302C2.41207 5.82619 3.83445 3.29642 6.13296 1.76084ZM20.8069 8.79564H23C22.781 5.27887 21.1382 2.20212 18.5085 0.219667L16.9724 1.76084C19.1654 3.29642 20.5878 5.82619 20.8069 8.79564ZM18.6207 9.34982C18.6207 5.93884 16.3208 3.18934 13.1449 2.42209V1.64807C13.1449 0.768242 12.3742 -0.000183105 11.4966 -0.000183105C10.6259 -0.000183105 9.85514 0.768242 9.85514 1.64807V2.42209C6.67909 3.18934 4.37931 5.93884 4.37931 9.34982V15.3962L2.19302 17.5984V18.6997H20.8069V17.5984L18.6207 15.3962V9.34982ZM11.4966 21.9965H11.9361C12.7054 21.8893 13.2515 21.3366 13.4706 20.6754C13.5829 20.4555 13.6896 20.1282 13.6896 19.7942H9.31029C9.31029 21.008 10.2946 21.9965 11.4966 21.9965Z" fill="#323D41"/>
</svg>
