<svg width="31" height="19" viewBox="0 0 31 19" fill="none" xmlns="http://www.w3.org/2000/svg">
<path fill-rule="evenodd" clip-rule="evenodd" d="M-0.000488281 15.0913L4.99177 15.0853C5.12056 12.6579 6.0712 10.3489 7.68412 8.54413L4.1488 4.97516C1.59972 7.72976 0.12572 11.3236 -0.000488281 15.0913ZM16.0552 15.6446C16.0552 15.9535 15.8071 16.2036 15.5011 16.2036C15.1953 16.2036 14.9472 15.9535 14.9472 15.6446C14.9472 15.3354 15.1953 15.0853 15.5011 15.0853C15.8071 15.0853 16.0552 15.3354 16.0552 15.6446ZM12.1775 15.6446C12.1775 17.4976 13.6657 18.9999 15.5011 18.9999C17.3369 18.9999 18.8248 17.4976 18.8248 15.6446C18.8248 13.7913 17.3369 12.2891 15.5011 12.2891C13.6663 12.291 12.1795 13.7923 12.1775 15.6446ZM17.1632 15.6446C17.1632 16.5711 16.419 17.3221 15.5011 17.3221C14.5834 17.3221 13.8392 16.5711 13.8392 15.6446C13.8392 14.7178 14.5834 13.9669 15.5011 13.9669C16.4186 13.9679 17.1623 14.7185 17.1632 15.6446ZM14.9472 5.0464V-0.000137329C11.2166 0.122183 7.65737 1.60965 4.93261 4.18453L8.46861 7.75451C10.2547 6.12532 12.5432 5.16845 14.9472 5.0464ZM16.0552 -0.000137329V5.03672C16.621 5.06651 17.183 5.14302 17.7365 5.26539L19.1197 2.57536C19.3764 2.07354 19.9635 1.8439 20.4882 2.04023C21.013 2.23625 21.3101 2.79644 21.1814 3.34615L20.4963 6.30117C21.2312 6.70078 21.9164 7.18772 22.5371 7.75125L26.0698 4.18453C23.345 1.60965 19.7857 0.122183 16.0552 -0.000137329ZM30.9995 15.0853C30.8747 11.3196 29.4017 7.72756 26.8536 4.97516L23.3182 8.54413C24.9288 10.345 25.8793 12.6487 26.0117 15.0711L30.9995 15.0853ZM15.9368 11.1929C16.6942 11.2685 17.419 11.541 18.0409 11.9839L20.1027 3.09102L15.9368 11.1929Z" fill="#D22254"/>
</svg>
