<svg width="13" height="29" viewBox="0 0 13 29" fill="none" xmlns="http://www.w3.org/2000/svg">
<path fill-rule="evenodd" clip-rule="evenodd" d="M8.62118 7.28749C9.55539 7.28749 10.3515 6.9779 11.0188 6.37033C11.6766 5.76043 12.0068 5.01553 12.0068 4.14254C12.0068 3.27659 11.6766 2.53169 11.0188 1.9125C10.3515 1.30496 9.55539 0.995361 8.62118 0.995361C7.69869 0.995361 6.89328 1.30496 6.22599 1.9125C5.56803 2.53169 5.22858 3.27659 5.22858 4.14254C5.22858 5.01553 5.56803 5.76043 6.22599 6.37033C6.89328 6.9779 7.69869 7.28749 8.62118 7.28749ZM8.53925 27.6468C9.21585 27.4117 10.122 27.0742 11.2646 26.6295L11.6486 25.0839C11.4472 25.1746 11.1287 25.284 10.6979 25.4005C10.2601 25.5192 9.87381 25.582 9.52725 25.582C8.78745 25.582 8.27462 25.4656 7.97264 25.2189C7.67996 24.9838 7.52541 24.5275 7.52541 23.864C7.52541 23.601 7.56989 23.2099 7.66122 22.7001C7.76189 22.1904 7.86255 21.7271 7.98195 21.3267L9.39854 16.3358C9.53667 15.8796 9.62792 15.3814 9.6818 14.825C9.72867 14.2803 9.75672 13.8986 9.75672 13.6798C9.75672 12.6253 9.3798 11.7709 8.63991 11.1168C7.90002 10.4603 6.84641 10.1251 5.47668 10.1251C4.71575 10.1251 3.91275 10.2601 3.06047 10.5348C2.21049 10.8071 1.31384 11.1261 0.381934 11.5079L0.00732422 13.0442C0.281269 12.9442 0.609004 12.8347 0.993019 12.716C1.37934 12.6066 1.76336 12.5531 2.12856 12.5531C2.87778 12.5531 3.3812 12.6718 3.64581 12.9255C3.91275 13.1792 4.04847 13.6262 4.04847 14.2617C4.04847 14.6179 4.004 15.0066 3.91976 15.4443C3.83774 15.8632 3.72774 16.3172 3.60134 16.7991L2.17304 21.8086C2.04663 22.337 1.95528 22.8002 1.89909 23.2192C1.8453 23.6383 1.81716 24.0457 1.81716 24.446C1.81716 25.4749 2.19176 26.3292 2.9598 26.9927C3.72074 27.6654 4.79778 28.003 6.17913 28.003C7.07588 28.003 7.86255 27.8842 8.53925 27.6468Z" fill="#323D41"/>
</svg>
