<svg width="30" height="30" viewBox="0 0 30 30" fill="none" xmlns="http://www.w3.org/2000/svg">
<path fill-rule="evenodd" clip-rule="evenodd" d="M27.725 2.71952H5.43911C5.38548 2.71952 5.33556 2.73562 5.28558 2.75174L5.28558 2.75174C5.27299 2.7558 5.2604 2.75987 5.24774 2.76367L4.69998 0.963683C4.52577 0.391243 3.99771 0 3.39944 0H0.679913C0.304403 0 0 0.304436 0 0.679914V2.03961C0 2.41512 0.304403 2.71952 0.679913 2.71952H2.39227L6.64016 16.6789L5.05366 18.5298C4.42661 19.2613 4.1443 20.2692 4.43283 21.1885C4.80199 22.3641 5.83963 23.1158 7.03584 23.1158H26.5152C26.8907 23.1158 27.1951 22.8114 27.1951 22.4359V21.0761C27.1951 20.7007 26.8907 20.3963 26.5152 20.3963H7.03584L9.19094 17.8819C9.24141 17.8229 9.27949 17.7572 9.31759 17.6913L9.32607 17.6767H22.501C23.5548 17.6767 24.5137 17.0682 24.9625 16.1148L29.7067 6.03318C29.8429 5.74308 29.9146 5.42106 29.9146 5.10175V4.90919C29.9146 3.69986 28.9342 2.71952 27.725 2.71952ZM8.15853 24.4755C9.66054 24.4755 10.8781 25.6931 10.8781 27.195C10.8781 28.697 9.66054 29.9145 8.15853 29.9145C6.65662 29.9145 5.43911 28.697 5.43911 27.195C5.43911 25.6931 6.65662 24.4755 8.15853 24.4755ZM27.1951 27.195C27.1951 25.6931 25.9775 24.4755 24.4756 24.4755C22.9736 24.4755 21.7561 25.6931 21.7561 27.195C21.7561 28.697 22.9736 29.9145 24.4756 29.9145C25.9775 29.9145 27.1951 28.697 27.1951 27.195Z" fill="#D22254"/>
</svg>
