<svg width="20" height="20" viewBox="0 0 20 20" fill="none" xmlns="http://www.w3.org/2000/svg">
<path fill-rule="evenodd" clip-rule="evenodd" d="M3.51738 -0.000183105H4.68994V1.21702H15.3097V3.65134H16.4822V1.21702H15.3097V-0.000183105H16.4822V1.21702H19.9998V4.86862H-0.000244141V1.21702H3.51738V3.65134H4.68985V1.21702H3.51738V-0.000183105ZM-0.000244141 19.9995H19.9998V6.08539H-0.000244141V19.9995ZM14.8278 8.11433H16.8969V10.2624H14.8278V8.11433ZM14.8278 11.7659H16.8969V13.9139H14.8278V11.7659ZM14.8278 15.4174H16.8969V17.5652H14.8278V15.4174ZM10.9194 8.11433H12.9885V10.2624H10.9194V8.11433ZM10.9194 11.7659H12.9885V13.9139H10.9194V11.7659ZM10.9194 15.4174H12.9885V17.5652H10.9194V15.4174ZM7.01103 8.11433H9.08013V10.2624H7.01103V8.11433ZM7.01103 11.7659H9.08013V13.9139H7.01103V11.7659ZM7.01103 15.4174H9.08013V17.5652H7.01103V15.4174ZM3.10264 8.11433H5.17156V10.2624H3.10264V8.11433ZM3.10264 11.7659H5.17156V13.9139H3.10264V11.7659ZM5.17156 15.4174V17.5652H3.10264V15.4174H5.17156Z" fill="#323D41"/>
</svg>
