<svg width="38" height="31" viewBox="0 0 38 31" fill="none" xmlns="http://www.w3.org/2000/svg">
<path fill-rule="evenodd" clip-rule="evenodd" d="M26.8455 4.85456H34.6358C36.3544 4.85456 37.7518 6.19611 37.7518 7.84597V12.3331C37.7518 13.983 36.3544 15.3245 34.6358 15.3245H22.1715V14.5766C22.1715 14.1633 21.823 13.8289 21.3924 13.8289H16.7183C16.2877 13.8289 15.9392 14.1633 15.9392 14.5766V15.3245H3.47489C1.75628 15.3245 0.358643 13.983 0.358643 12.3331V7.84597C0.358643 6.19611 1.75628 4.85456 3.47489 4.85456H11.265V3.35881C11.265 1.70889 12.6626 0.367249 14.3812 0.367249H23.7295C25.4481 0.367249 26.8455 1.70889 26.8455 3.35881V4.85456ZM14.3812 3.35881V4.85456H23.7295V3.35881H14.3812ZM36.5028 16.2053C36.7371 16.0345 37.0543 16.0053 37.3198 16.1317C37.5846 16.2581 37.7519 16.5172 37.7519 16.8013V27.2903C37.7519 28.9402 36.3545 30.2819 34.6359 30.2819H3.47492C1.75631 30.2819 0.358677 28.9402 0.358677 27.2903V16.8013C0.358677 16.5172 0.526064 16.2581 0.790846 16.1317C1.05632 16.0039 1.37294 16.033 1.60797 16.2053C2.16177 16.6077 2.80696 16.8203 3.47492 16.8203H15.9392V19.0639C15.9392 19.4774 16.2877 19.8117 16.7183 19.8117H21.3925C21.823 19.8117 22.1715 19.4774 22.1715 19.0639V16.8203H34.6359C35.3038 16.8203 35.949 16.6077 36.5028 16.2053Z" fill="#D22254"/>
</svg>
