<svg width="31" height="31" viewBox="0 0 31 31" fill="none" xmlns="http://www.w3.org/2000/svg">
<path fill-rule="evenodd" clip-rule="evenodd" d="M29.9554 13.3571C29.9079 12.9347 29.4152 12.6174 28.9895 12.6174C27.6126 12.6174 26.3907 11.8089 25.8783 10.5585C25.3547 9.27778 25.6924 7.78426 26.7186 6.84275C27.0415 6.54742 27.0808 6.0533 26.8099 5.70974C26.1052 4.81494 25.3042 4.00654 24.4295 3.30581C24.0871 3.03085 23.5847 3.0692 23.2876 3.39807C22.392 4.38996 20.7835 4.75874 19.5402 4.23989C18.2467 3.69571 17.431 2.3848 17.5108 0.977684C17.5372 0.535654 17.214 0.151406 16.7734 0.100103C15.6511 -0.0296439 14.5189 -0.0338749 13.3932 0.0909791C12.9576 0.139308 12.6346 0.514465 12.6492 0.950875C12.6982 2.34417 11.8726 3.63211 10.5918 4.15662C9.36369 4.65838 7.76629 4.29288 6.87233 3.30981C6.57705 2.98599 6.08273 2.94623 5.73864 3.21431C4.83825 3.92103 4.01898 4.73018 3.30785 5.61755C3.03058 5.96272 3.07124 6.46296 3.39749 6.75968C4.44331 7.70674 4.78103 9.21342 4.23767 10.5088C3.71906 11.7439 2.43654 12.5399 0.96836 12.5399C0.492091 12.5245 0.152702 12.8442 0.100593 13.2775C-0.0315863 14.4064 -0.0332551 15.5565 0.0941223 16.6946C0.141259 17.1186 0.648657 17.4333 1.07929 17.4333C2.38766 17.4 3.6439 18.2099 4.17091 19.4924C4.69609 20.7731 4.35837 22.2656 3.33077 23.208C3.00912 23.5033 2.96846 23.9967 3.23936 24.3401C3.93738 25.2293 4.73849 26.0386 5.61627 26.745C5.96057 27.0225 6.46142 26.9834 6.75987 26.6543C7.6588 25.6601 9.26737 25.2922 10.5055 25.8118C11.8025 26.3544 12.6182 27.6652 12.5383 29.0731C12.5124 29.5153 12.8369 29.9002 13.2758 29.9508C13.8498 30.0177 14.4275 30.0512 15.0066 30.0512C15.5564 30.0512 16.1063 30.021 16.656 29.9598C17.0917 29.9117 17.4146 29.5366 17.3999 29.0994C17.3494 27.7068 18.1764 26.4189 19.4555 25.895C20.692 25.3901 22.2829 25.7597 23.1766 26.7419C23.4738 27.0649 23.9645 27.104 24.3107 26.8366C25.2094 26.1319 26.0268 25.3232 26.7413 24.4335C27.0187 24.0892 26.9795 23.588 26.6516 23.2914C25.6058 22.3445 25.2663 20.8376 25.8097 19.5431C26.3205 18.3243 27.5553 17.5061 28.8834 17.5061L29.0693 17.511C29.5002 17.546 29.8964 17.214 29.9487 16.7744C30.0811 15.6444 30.0827 14.4952 29.9554 13.3571ZM15.0486 20.0692C12.2848 20.0692 10.0368 17.8211 10.0368 15.0575C10.0368 12.2938 12.2848 10.0457 15.0486 10.0457C17.812 10.0457 20.06 12.2938 20.06 15.0575C20.06 17.8211 17.812 20.0692 15.0486 20.0692Z" fill="#D22254"/>
</svg>
