<svg width="27" height="25" viewBox="0 0 27 25" fill="none" xmlns="http://www.w3.org/2000/svg">
<path fill-rule="evenodd" clip-rule="evenodd" d="M22.6627 3.84597C22.6627 5.96996 20.9353 7.69204 18.8047 7.69204C16.674 7.69204 14.9467 5.96996 14.9467 3.84597C14.9467 1.72186 16.674 -0.000213623 18.8047 -0.000213623C20.9353 -0.000213623 22.6627 1.72186 22.6627 3.84597ZM12.0532 5.76913C12.0532 7.89301 10.3257 9.61508 8.19516 9.61508C6.06459 9.61508 4.33716 7.89301 4.33716 5.76913C4.33716 3.64491 6.06459 1.92283 8.19516 1.92283C10.3257 1.92283 12.0532 3.64491 12.0532 5.76913ZM15.0519 14.7166C13.5837 12.1133 11.0588 10.5767 8.19516 10.5767C5.97066 10.5767 3.9189 11.5073 2.41818 13.1975C0.91179 14.8939 0.05814 17.266 0 19.9027C0.97326 20.3969 4.61535 22.115 8.19516 22.115C9.24288 22.1103 10.2871 21.9976 11.3113 21.7788C10.4595 18.8059 12.1087 15.692 15.0519 14.7166ZM16.8756 15.3843C14.9249 15.3843 13.1668 16.5554 12.4201 18.3521C11.6738 20.1488 12.0865 22.2165 13.4657 23.5914C14.8449 24.9664 16.919 25.3778 18.7212 24.6338C20.5234 23.8894 21.6981 22.1365 21.6981 20.192C21.695 17.5381 19.5378 15.3875 16.8756 15.3843ZM19.2869 20.6726H17.3579V22.5958C17.3579 22.8612 17.1418 23.0766 16.8756 23.0766C16.6094 23.0766 16.3934 22.8612 16.3934 22.5958V20.6726H14.4644C14.1982 20.6726 13.9821 20.4574 13.9821 20.192C13.9821 19.9266 14.1982 19.7112 14.4644 19.7112H16.3934V17.7881C16.3934 17.5228 16.6094 17.3072 16.8756 17.3072C17.1418 17.3072 17.3579 17.5228 17.3579 17.7881V19.7112H19.2869C19.5531 19.7112 19.7692 19.9266 19.7692 20.192C19.7692 20.4574 19.5531 20.6726 19.2869 20.6726ZM18.8047 8.6535C16.6176 8.6535 14.623 9.53963 13.1316 11.1599C14.3037 11.9803 15.2942 13.1065 16.0235 14.4853C17.6019 14.2515 19.2069 14.6776 20.4593 15.6629C21.712 16.6479 22.501 18.1047 22.6404 19.6893C24.1575 19.3025 25.6214 18.7322 27.0001 17.9915C26.9442 15.3498 26.0905 12.9735 24.5816 11.2743C23.0809 9.5844 21.0291 8.6535 18.8047 8.6535Z" fill="#F2F5FA"/>
</svg>
