<svg width="27" height="27" viewBox="0 0 27 27" fill="none" xmlns="http://www.w3.org/2000/svg">
<path fill-rule="evenodd" clip-rule="evenodd" d="M21.3876 13.1878C20.767 13.1878 20.2651 13.6798 20.2651 14.2859V23.0724C20.2651 23.6779 19.7625 24.1708 19.1429 24.1708H3.42963C2.80996 24.1708 2.30722 23.6779 2.30722 23.0724V7.69588C2.30722 7.09099 2.80996 6.59782 3.42963 6.59782H12.4087C13.0293 6.59782 13.531 6.10561 13.531 5.49943C13.531 4.89316 13.0293 4.40104 12.4087 4.40104H3.42963C1.57311 4.40104 0.0625 5.87947 0.0625 7.69588V23.0724C0.0625 24.8893 1.57311 26.3676 3.42963 26.3676H19.1429C20.9995 26.3676 22.5101 24.8893 22.5101 23.0724V14.2859C22.5101 13.6787 22.0083 13.1878 21.3876 13.1878ZM10.5858 12.1873C10.5071 12.2641 10.4545 12.3617 10.4321 12.467L9.63844 16.3509C9.60156 16.5309 9.65993 16.7165 9.79235 16.8472C9.89901 16.9515 10.0426 17.0076 10.1899 17.0076C10.2255 17.0076 10.2627 17.0043 10.2996 16.9967L14.2673 16.2204C14.3772 16.1981 14.4773 16.1467 14.5547 16.0695L23.435 7.37965L19.4674 3.49726L10.5858 12.1873ZM26.178 0.811904C25.0837 -0.258916 23.3037 -0.258916 22.2102 0.811904L20.6571 2.33176L24.6246 6.21436L26.178 4.69426C26.7078 4.17694 26.9996 3.48721 26.9996 2.75347C26.9996 2.02 26.7078 1.33 26.178 0.811904Z" fill="#F2F5FA"/>
</svg>
