<svg width="31" height="37" viewBox="0 0 31 37" fill="none" xmlns="http://www.w3.org/2000/svg">
<path fill-rule="evenodd" clip-rule="evenodd" d="M0.425915 36.9997L0 0.289737L30.5742 -0.000183105L31.0001 36.7098L0.425915 36.9997ZM2.5061 35.2777L28.8805 35.0277L28.494 1.7145L2.1196 1.96454L2.5061 35.2777ZM12.6047 4.71282L3.7303 4.79694L3.74174 5.78182L12.6162 5.69758L12.6047 4.71282ZM3.77598 8.73006L25.9665 8.51958L25.978 9.50442L3.78742 9.71486L3.77598 8.73006ZM26.0122 12.4587L3.82165 12.6692L3.8331 13.6539L26.0237 13.4435L26.0122 12.4587ZM17.5156 31.8879L26.3899 31.8038L26.4014 32.7885L17.5271 32.8727L17.5156 31.8879ZM26.416 16.7383L4.22541 16.9488L4.23686 17.9335L26.4274 17.7231L26.416 16.7383ZM9.49991 22.9997C6.46744 22.9997 3.99991 25.4671 3.99991 28.4998C3.99991 31.5324 6.46744 33.9998 9.49991 33.9998C12.5326 33.9998 14.9999 31.5324 14.9999 28.4998C14.9999 25.4671 12.5326 22.9997 9.49991 22.9997ZM12.6412 26.9234L8.67818 30.8863C8.58879 30.9758 8.47151 31.0206 8.35422 31.0206C8.23687 31.0206 8.11958 30.9758 8.03009 30.8863L5.90044 28.7567C5.81095 28.6673 5.81095 28.5221 5.90044 28.4326L6.22451 28.1086C6.314 28.0191 6.45904 28.0191 6.54864 28.1086L8.35422 29.9143L11.993 26.2752C12.0825 26.1857 12.2276 26.1857 12.3172 26.2752L12.6412 26.5993C12.7307 26.6888 12.7307 26.8339 12.6412 26.9234Z" fill="#D22254"/>
</svg>
