<svg width="20" height="23" viewBox="0 0 20 23" fill="none" xmlns="http://www.w3.org/2000/svg">
<path fill-rule="evenodd" clip-rule="evenodd" d="M13.1528 1.14894V3.68958C13.1528 4.11278 13.4979 4.45593 13.9237 4.45593H16.482C16.8255 4.45593 16.9975 4.04305 16.7542 3.80156L13.8106 0.877681C13.5678 0.636427 13.1528 0.807481 13.1528 1.14894ZM3.95637 9.72686H6.12449C6.33735 9.72686 6.50997 9.55534 6.50997 9.34362V7.66654C6.50997 7.45482 6.33735 7.2833 6.12449 7.2833H3.95637C3.74378 7.2833 3.57105 7.45482 3.57105 7.66654V9.34362C3.57105 9.55534 3.74378 9.72686 3.95637 9.72686ZM6.50997 10.877V12.5541C6.50997 12.7656 6.33735 12.9373 6.12449 12.9373H3.95637C3.74378 12.9373 3.57105 12.7656 3.57105 12.5541V10.877C3.57105 10.6653 3.74378 10.4935 3.95637 10.4935H6.12449C6.33735 10.4935 6.50997 10.6653 6.50997 10.877ZM7.28097 7.66654V9.34362C7.28097 9.55534 7.45333 9.72686 7.66627 9.72686H9.97878C10.1916 9.72686 10.3644 9.55534 10.3644 9.34362V7.66654C10.3644 7.45482 10.1916 7.2833 9.97878 7.2833H7.66627C7.45333 7.2833 7.28097 7.45482 7.28097 7.66654ZM7.28097 12.5541V10.877C7.28097 10.6653 7.45333 10.4935 7.66627 10.4935H9.97878C10.1916 10.4935 10.3644 10.6653 10.3644 10.877V12.5541C10.3644 12.7656 10.1916 12.9373 9.97878 12.9373H7.66627C7.45333 12.9373 7.28097 12.7656 7.28097 12.5541ZM14.074 9.34362V7.66654C14.074 7.45482 13.9016 7.2833 13.6887 7.2833H11.5207C11.3077 7.2833 11.1353 7.45482 11.1353 7.66654V9.34362C11.1353 9.55534 11.3077 9.72686 11.5207 9.72686H13.6887C13.9016 9.72686 14.074 9.55534 14.074 9.34362ZM15.2162 9.63536C15.8661 9.66045 16.5042 9.79212 17.1093 10.0278C17.3637 10.1269 17.6394 9.94463 17.6394 9.6728V5.6062C17.6394 5.39437 17.4668 5.22275 17.2539 5.22275H13.9237C13.0721 5.22275 12.3818 4.53619 12.3818 3.68958V0.383031C12.3818 0.171547 12.2095 -0.000183105 11.9965 -0.000183105H1.54181C0.690161 -0.000183105 0 0.686347 0 1.53332V21.4664C0 22.3134 0.690161 22.9999 1.54181 22.9999H16.092C16.9417 22.9999 17.6336 22.3117 17.6336 21.4664L17.6338 21.1876C17.6338 20.9182 17.3619 20.7317 17.1096 20.83C12.7467 22.5301 8.2855 18.6411 9.29757 14.1699C9.35164 13.931 9.16785 13.704 8.92159 13.704H3.95637C3.31796 13.704 2.80016 13.1891 2.80016 12.5541V7.66654C2.80016 7.03128 3.31796 6.51661 3.95637 6.51661H13.6887C14.3274 6.51661 14.8449 7.03128 14.8449 7.66654V9.25283C14.8449 9.45893 15.0092 9.62759 15.2162 9.63536ZM8.29249 18.6873C8.29249 18.899 8.12015 19.0706 7.90719 19.0706H3.18575C2.9728 19.0706 2.80016 18.899 2.80016 18.6873C2.80016 18.4756 2.9728 18.3041 3.18575 18.3041H7.90719C8.12015 18.3041 8.29249 18.4756 8.29249 18.6873ZM3.18575 15.4291H6.94363C7.1565 15.4291 7.32895 15.6006 7.32895 15.8123C7.32895 16.024 7.1565 16.1956 6.94363 16.1956H3.18575C2.9728 16.1956 2.80016 16.024 2.80016 15.8123C2.80016 15.6006 2.9728 15.4291 3.18575 15.4291ZM14.9411 10.4697C12.1516 10.4697 9.88236 12.7265 9.88236 15.501C9.88236 18.2753 12.1516 20.5321 14.9411 20.5321C17.7308 20.5321 20 18.2753 20 15.501C20 12.7265 17.7308 10.4697 14.9411 10.4697ZM15.5155 14.6303V15.2905H13.386C13.3694 15.3978 13.3577 15.5085 13.3577 15.6208C13.3577 15.733 13.3694 15.8436 13.386 15.9509H15.5155V16.6112H13.6017C13.9619 17.2979 14.6839 17.7667 15.5155 17.7667C16.0516 17.7667 16.5413 17.5703 16.918 17.2484L17.5072 17.8328C16.9794 18.3032 16.2806 18.5921 15.5155 18.5921C14.2158 18.5921 13.1121 17.765 12.7021 16.6112H11.5319V15.9509H12.5478C12.5345 15.842 12.5279 15.733 12.5279 15.6208C12.5279 15.5085 12.5345 15.3996 12.5478 15.2905H11.5319V14.6303H12.7021C13.1121 13.4764 14.2158 12.6494 15.5155 12.6494C16.2806 12.6494 16.9794 12.9382 17.5072 13.4087L16.918 13.9914C16.5413 13.6696 16.0516 13.4748 15.5155 13.4748C14.6822 13.4748 13.9619 13.9436 13.6017 14.6303H15.5155Z" fill="#F2F5FA"/>
</svg>
