<svg width="24" height="30" viewBox="0 0 24 30" fill="none" xmlns="http://www.w3.org/2000/svg">
<path fill-rule="evenodd" clip-rule="evenodd" d="M21.6 -6.10352e-05H3.60001C2.27698 -6.10352e-05 1.20003 1.12116 1.20003 2.49999V4.99998H0.600002C0.268398 4.99998 0 5.27949 0 5.62493C0 5.97041 0.268398 6.24999 0.600002 6.24999H2.99998C3.3305 6.24999 3.60001 6.53012 3.60001 6.87494C3.60001 7.21977 3.3305 7.49997 2.99998 7.49997H1.80003C1.46835 7.49997 1.20003 7.77948 1.20003 8.12495V11.25H0.600002C0.268398 11.25 0 11.5295 0 11.875C0 12.2204 0.268398 12.4999 0.600002 12.4999H2.99998C3.3305 12.4999 3.60001 12.7801 3.60001 13.125C3.60001 13.4698 3.3305 13.7499 2.99998 13.7499H1.80003C1.46835 13.7499 1.20003 14.0295 1.20003 14.375V17.4999H0.600002C0.268398 17.4999 0 17.7795 0 18.125C0 18.4704 0.268398 18.75 0.600002 18.75H2.99998C3.3305 18.75 3.60001 19.0301 3.60001 19.3749C3.60001 19.7198 3.3305 20 2.99998 20H1.80003C1.46835 20 1.20003 20.2795 1.20003 20.625V23.75H0.600002C0.268398 23.75 0 24.0295 0 24.3749C0 24.7204 0.268398 25 0.600002 25H2.99998C3.3305 25 3.60001 25.2801 3.60001 25.6249C3.60001 25.9698 3.3305 26.2499 2.99998 26.2499H1.80003C1.46835 26.2499 1.20003 26.5295 1.20003 26.875V27.5C1.20003 28.8787 2.27698 29.9999 3.60001 29.9999H21.6C22.9231 29.9999 24 28.8787 24 27.5V2.49999C24 1.12116 22.9231 -6.10352e-05 21.6 -6.10352e-05ZM20.4 19.8608C20.4 20.6268 19.8012 21.25 19.0664 21.25C11.8618 21.25 5.99999 15.144 5.99999 7.63913C5.99999 6.87311 6.5988 6.24999 7.33364 6.24999H9.90007C10.6348 6.24999 11.2336 6.87311 11.2336 7.63913C11.2336 8.50705 11.3637 9.35847 11.6203 10.1708C11.7738 10.6774 11.6472 11.217 11.2922 11.5869L10.241 13.045C11.1446 14.7742 12.2039 15.8776 13.8762 16.831L15.3387 15.6805C15.634 15.3662 16.1672 15.2344 16.6441 15.4052C17.4153 15.6701 18.2333 15.8062 19.0664 15.8062C19.8012 15.8062 20.4 16.4294 20.4 17.1954V19.8608Z" fill="#323D41"/>
</svg>
