<svg width="31" height="31" viewBox="0 0 31 31" fill="none" xmlns="http://www.w3.org/2000/svg">
<path fill-rule="evenodd" clip-rule="evenodd" d="M5.10397 14.4571C5.81107 14.4571 6.45124 14.1737 6.92399 13.7182L9.51855 15.0148C9.50564 15.1205 9.48653 15.2242 9.48653 15.3334C9.48653 16.7827 10.6659 17.9618 12.116 17.9618C13.5657 17.9618 14.7453 16.7827 14.7453 15.3334C14.7453 14.9288 14.6459 14.5501 14.4817 14.2075L18.0014 10.6893C18.3443 10.8532 18.7231 10.9527 19.1277 10.9527C20.5777 10.9527 21.7573 9.77358 21.7573 8.32429C21.7573 8.05143 21.7035 7.79342 21.6259 7.54589L24.684 5.25377C25.1013 5.53227 25.6015 5.69576 26.1396 5.69576C27.5896 5.69576 28.7692 4.51675 28.7692 3.0674C28.7692 1.61823 27.5896 0.438934 26.1396 0.438934C24.6899 0.438934 23.5102 1.61823 23.5102 3.0674C23.5102 3.34044 23.5638 3.59842 23.6415 3.84602L20.5834 6.13788C20.1662 5.85942 19.666 5.69576 19.1277 5.69576C17.6778 5.69576 16.4983 6.87506 16.4983 8.32429C16.4983 8.72893 16.5977 9.10762 16.762 9.45018L13.2423 12.9686C12.8992 12.8044 12.5206 12.7049 12.116 12.7049C11.4088 12.7049 10.7688 12.9885 10.2957 13.4439L7.70128 12.1472C7.71429 12.0417 7.7335 11.9379 7.7335 11.8287C7.7335 10.3796 6.55365 9.20038 5.10397 9.20038C3.65412 9.20038 2.47443 10.3796 2.47443 11.8287C2.47443 13.278 3.65412 14.4571 5.10397 14.4571ZM29.7042 28.5922H28.7692V10.0766C28.7692 9.59243 28.3769 9.20038 27.8927 9.20038H24.3866C23.9023 9.20038 23.5102 9.59243 23.5102 10.0766V28.5922H21.7573V15.3334C21.7573 14.8492 21.3651 14.4571 20.8808 14.4571H17.3747C16.8903 14.4571 16.4983 14.8492 16.4983 15.3334V28.5922H14.7453V22.3424C14.7453 21.8582 14.3532 21.4664 13.8687 21.4664H10.363C9.87856 21.4664 9.48653 21.8582 9.48653 22.3424V28.5922H7.7335V18.8379C7.7335 18.3538 7.34137 17.9618 6.85686 17.9618H3.35088C2.86657 17.9618 2.47443 18.3538 2.47443 18.8379V28.5922H1.53963C1.05522 28.5922 0.663086 28.9842 0.663086 29.4684C0.663086 29.9525 1.05522 30.3445 1.53963 30.3445H29.7042C30.1885 30.3445 30.5805 29.9525 30.5805 29.4684C30.5805 28.9842 30.1885 28.5922 29.7042 28.5922Z" fill="#D22254"/>
</svg>
