<svg width="14" height="20" viewBox="0 0 14 20" fill="none" xmlns="http://www.w3.org/2000/svg">
<path fill-rule="evenodd" clip-rule="evenodd" d="M13.0019 3.42461C11.7687 1.32995 9.57823 0.0501604 7.14245 0.00137736C7.03846 -0.000784641 6.93392 -0.000784641 6.82993 0.00137736C4.39415 0.0501604 2.20372 1.32995 0.970464 3.42461C-0.290022 5.56577 -0.324528 8.13767 0.878088 10.3047L5.91694 19.3823C5.91915 19.3863 5.92147 19.3902 5.92396 19.3942C6.1455 19.7736 6.54262 19.9999 6.98615 19.9999C7.42976 19.9999 7.82708 19.7736 8.0486 19.3942C8.05093 19.3902 8.05323 19.3863 8.05544 19.3823L13.0943 10.3047C14.2969 8.13767 14.2624 5.56577 13.0019 3.42461ZM6.98615 9.06227C5.41049 9.06227 4.12869 7.80082 4.12869 6.24979C4.12869 4.69901 5.41049 3.43732 6.98615 3.43732C8.56189 3.43732 9.84369 4.69901 9.84369 6.24979C9.84369 7.80082 8.56189 9.06227 6.98615 9.06227Z" fill="white"/>
</svg>
