<svg width="26" height="25" viewBox="0 0 26 25" fill="none" xmlns="http://www.w3.org/2000/svg">
<path fill-rule="evenodd" clip-rule="evenodd" d="M4.70839 11.7178C5.29935 11.7178 5.83424 11.4808 6.22932 11.1002L8.39772 12.1837C8.38691 12.2721 8.37087 12.3588 8.37087 12.45C8.37087 13.6612 9.35647 14.6466 10.5683 14.6466C11.78 14.6466 12.7657 13.6612 12.7657 12.45C12.7657 12.112 12.6826 11.7954 12.5454 11.5092L15.4868 8.56883C15.7735 8.70585 16.09 8.78909 16.4282 8.78909C17.6399 8.78909 18.6258 7.80365 18.6258 6.59245C18.6258 6.36441 18.5809 6.14882 18.516 5.94194L21.0717 4.02637C21.4204 4.25914 21.8384 4.39573 22.2882 4.39573C23.4999 4.39573 24.4857 3.41048 24.4857 2.19918C24.4857 0.988117 23.4999 0.00256348 22.2882 0.00256348C21.0765 0.00256348 20.0907 0.988117 20.0907 2.19918C20.0907 2.42735 20.1354 2.64295 20.2004 2.84982L17.6447 4.76526C17.296 4.53249 16.8781 4.39573 16.4282 4.39573C15.2166 4.39573 14.2307 5.38129 14.2307 6.59245C14.2307 6.93057 14.3138 7.2471 14.451 7.53338L11.5096 10.4738C11.2231 10.3365 10.9065 10.2534 10.5683 10.2534C9.97734 10.2534 9.44246 10.4903 9.04718 10.871L6.87889 9.78728C6.88987 9.69913 6.90583 9.61238 6.90583 9.52117C6.90583 8.31011 5.91986 7.32461 4.70839 7.32461C3.49663 7.32461 2.51083 8.31011 2.51083 9.52117C2.51083 10.7324 3.49663 11.7178 4.70839 11.7178ZM25.2671 23.5306H24.4857V8.05683C24.4857 7.65218 24.1579 7.32461 23.7531 7.32461H20.8232C20.4183 7.32461 20.0907 7.65218 20.0907 8.05683V23.5306H18.6258V12.45C18.6258 12.0453 18.298 11.7178 17.8932 11.7178H14.9631C14.5584 11.7178 14.2307 12.0453 14.2307 12.45V23.5306H12.7657V18.3076C12.7657 17.9029 12.438 17.5754 12.0332 17.5754H9.10329C8.6985 17.5754 8.37087 17.9029 8.37087 18.3076V23.5306H6.90583V15.3788C6.90583 14.9742 6.57809 14.6466 6.17332 14.6466H3.24326C2.83857 14.6466 2.51083 14.9742 2.51083 15.3788V23.5306H1.72949C1.32481 23.5306 0.99707 23.8583 0.99707 24.2629C0.99707 24.6675 1.32481 24.995 1.72949 24.995H25.2671C25.6718 24.995 25.9995 24.6675 25.9995 24.2629C25.9995 23.8583 25.6718 23.5306 25.2671 23.5306Z" fill="#D22254"/>
</svg>
