<svg width="25" height="25" viewBox="0 0 25 25" fill="none" xmlns="http://www.w3.org/2000/svg">
<path fill-rule="evenodd" clip-rule="evenodd" d="M24.0181 7.63395C23.389 6.14606 22.4864 4.8085 21.3403 3.65968C20.1915 2.51084 18.8567 1.61095 17.366 0.981848C15.8233 0.330932 14.1877 0 12.5 0C10.8125 0 9.17672 0.330932 7.63409 0.981848C6.14608 1.61095 4.80855 2.51362 3.65982 3.65968C2.51098 4.80572 1.61109 6.14328 0.982016 7.63395C0.330988 9.17664 0 10.8123 0 12.4999C0 14.1876 0.330988 15.8232 0.982016 17.3659C1.61109 18.8539 2.51376 20.1914 3.65982 21.3402C4.80855 22.489 6.1434 23.3889 7.63409 24.018C9.17672 24.669 10.8125 24.9999 12.5 24.9999C14.1877 24.9999 15.8233 24.669 17.366 24.018C18.854 23.3889 20.1915 22.4863 21.3403 21.3402C22.4891 20.1914 23.389 18.8566 24.0181 17.3659C24.6691 15.8232 25 14.1876 25 12.4999C25 10.8123 24.6691 9.17664 24.0181 7.63395ZM22.7818 9.00155L20.1423 9.9015C19.7512 8.74448 19.0947 7.68592 18.2058 6.79426C17.3168 5.90531 16.2555 5.24888 15.0986 4.85766L15.9957 2.21822C19.1767 3.30411 21.6959 5.82322 22.7818 9.00155ZM12.5 18.9278C8.95518 18.9278 6.07228 16.0448 6.07228 12.4999C6.07228 8.95507 8.95518 6.07216 12.5 6.07216C16.0449 6.07216 18.9279 8.95507 18.9279 12.4999C18.9279 16.0448 16.0449 18.9278 12.5 18.9278ZM9.00169 2.21822L9.89881 4.85766C8.74185 5.24888 7.68334 5.90531 6.7916 6.79426C5.89991 7.6832 5.24619 8.74448 4.85506 9.9015L2.21556 9.00432C3.30422 5.82322 5.82333 3.30411 9.00169 2.21822ZM2.21833 15.9983L4.85783 15.1011C5.24896 16.2581 5.90545 17.3167 6.79434 18.2084C7.68334 19.0973 8.74462 19.7538 9.90156 20.1449L9.00444 22.7844C5.82333 21.6958 3.30422 19.1766 2.21833 15.9983ZM15.9984 22.7817L15.0986 20.1421C16.2555 19.751 17.314 19.0946 18.2058 18.2057C19.0975 17.3167 19.7512 16.2554 20.1423 15.0984L22.7818 15.9956C21.6959 19.1766 19.1767 21.6958 15.9984 22.7817Z" fill="#413232"/>
</svg>
