<svg width="24" height="24" viewBox="0 0 24 24" fill="none" xmlns="http://www.w3.org/2000/svg">
<path fill-rule="evenodd" clip-rule="evenodd" d="M23.9238 10.6672C23.8859 10.3298 23.4925 10.0764 23.1525 10.0764C22.0529 10.0764 21.077 9.43064 20.6678 8.43208C20.2497 7.40924 20.5194 6.21648 21.3389 5.46453C21.5968 5.22872 21.6281 4.83406 21.4118 4.55971C20.849 3.84507 20.2093 3.19945 19.5108 2.63982C19.2373 2.42026 18.836 2.45085 18.5988 2.7135C17.8835 3.50566 16.5989 3.80017 15.606 3.38578C14.573 2.95124 13.9215 1.90429 13.9852 0.780493C14.0062 0.427495 13.7482 0.120613 13.3964 0.0796536C12.5 -0.0239994 11.5958 -0.0273476 10.6967 0.0723634C10.3489 0.110919 10.091 0.410539 10.1026 0.759082C10.1417 1.87181 9.48234 2.90042 8.45947 3.31933C7.47866 3.72001 6.20287 3.42814 5.48898 2.64303C5.25317 2.38437 4.85834 2.35265 4.58358 2.56676C3.86442 3.13117 3.21015 3.77736 2.64225 4.48608C2.4208 4.76175 2.45328 5.16124 2.71385 5.39819C3.54906 6.15455 3.81876 7.35785 3.38481 8.39236C2.97064 9.3788 1.94637 10.0145 0.773811 10.0145C0.393487 10.0022 0.122419 10.2575 0.080783 10.6036C-0.024749 11.5051 -0.0260369 12.4237 0.0756311 13.3326C0.113263 13.6712 0.518507 13.9225 0.862403 13.9225C1.90734 13.8959 2.91066 14.5428 3.3315 15.567C3.75094 16.5898 3.48124 17.7818 2.66051 18.5344C2.40364 18.7702 2.37116 19.1643 2.58754 19.4386C3.14502 20.1487 3.78479 20.7951 4.48586 21.3592C4.76082 21.5808 5.1608 21.5496 5.39913 21.2868C6.11705 20.4928 7.40172 20.1989 8.39054 20.6139C9.42634 21.0472 10.0778 22.0941 10.014 23.2185C9.99323 23.5717 10.2524 23.879 10.603 23.9195C11.0614 23.9728 11.5228 23.9996 11.9853 23.9996C12.4243 23.9996 12.8635 23.9755 13.3025 23.9267C13.6506 23.8882 13.9084 23.5887 13.8966 23.2394C13.8563 22.1273 14.5168 21.0987 15.5384 20.6804C16.5258 20.2771 17.7964 20.5723 18.5101 21.3567C18.7474 21.6147 19.1394 21.6459 19.4158 21.4323C20.1336 20.8695 20.7864 20.2237 21.357 19.5131C21.5785 19.2381 21.5472 18.8379 21.2854 18.601C20.4502 17.8448 20.1791 16.6413 20.613 15.6074C21.0209 14.6341 22.0071 13.9806 23.0678 13.9806L23.2163 13.9846C23.5603 14.0125 23.8768 13.7474 23.9186 13.3963C24.0243 12.4938 24.0255 11.5761 23.9238 10.6672ZM12.0188 16.0277C9.81157 16.0277 8.01621 14.2323 8.01621 12.0251C8.01621 9.81788 9.81157 8.02251 12.0188 8.02251C14.2258 8.02251 16.0211 9.81788 16.0211 12.0251C16.0211 14.2323 14.2258 16.0277 12.0188 16.0277Z" fill="#323D41"/>
</svg>
