<svg width="24" height="26" viewBox="0 0 24 26" fill="none" xmlns="http://www.w3.org/2000/svg">
<path fill-rule="evenodd" clip-rule="evenodd" d="M23.8831 11.6609C23.8454 11.3232 23.4526 11.0697 23.1131 11.0697C22.0154 11.0697 21.0413 10.4233 20.6327 9.42404C20.2153 8.40038 20.4845 7.2066 21.3027 6.45419C21.5603 6.21829 21.5915 5.82321 21.3756 5.54881C20.8137 4.83332 20.1751 4.18731 19.4778 3.62725C19.2047 3.40759 18.8042 3.43822 18.5674 3.70089C17.8534 4.49368 16.5709 4.78852 15.5798 4.37376C14.5485 3.93875 13.8981 2.89096 13.9617 1.76657C13.9827 1.41324 13.7252 1.10608 13.3738 1.06503C12.4792 0.961092 11.5765 0.95818 10.679 1.05792C10.3318 1.09642 10.0743 1.39621 10.0859 1.74501C10.1249 2.85865 9.46673 3.8881 8.4457 4.30732C7.46655 4.70828 6.19288 4.41626 5.48029 3.63042C5.24493 3.37175 4.85076 3.33994 4.57644 3.55428C3.85851 4.11871 3.20552 4.76551 2.63862 5.475C2.41739 5.75094 2.45003 6.1507 2.70988 6.38788C3.54369 7.1447 3.81302 8.34889 3.37983 9.38419C2.96627 10.3714 1.94386 11.0076 0.773356 11.0076C0.393655 10.9953 0.122953 11.251 0.0815078 11.5972C-0.0238462 12.4996 -0.0251422 13.4188 0.0763508 14.3283C0.113908 14.6675 0.518503 14.9188 0.861835 14.9188C1.90482 14.8922 2.90638 15.5395 3.3265 16.5647C3.7453 17.5881 3.47597 18.7813 2.65671 19.5342C2.40048 19.7701 2.36784 20.1648 2.58392 20.4392C3.14039 21.1498 3.77916 21.7967 4.47892 22.3614C4.75324 22.5832 5.15276 22.5518 5.39071 22.2889C6.10737 21.4943 7.38971 21.2001 8.37677 21.6154C9.41074 22.0491 10.0612 23.0967 9.99747 24.2221C9.97679 24.5755 10.2354 24.8829 10.5854 24.9234C11.0431 24.9771 11.5036 25.0039 11.9654 25.0039C12.4036 25.0039 12.8421 24.9796 13.2803 24.9308C13.6277 24.8925 13.8851 24.5925 13.8734 24.243C13.8331 23.13 14.4925 22.1006 15.5123 21.6821C16.4981 21.2783 17.7663 21.5738 18.4789 22.3587C18.7157 22.6169 19.1071 22.6481 19.3829 22.4344C20.0995 21.8712 20.7512 21.225 21.3209 20.5136C21.5419 20.2383 21.5108 19.8382 21.2492 19.601C20.4155 18.844 20.145 17.6398 20.5781 16.6049C20.9853 15.631 21.9697 14.9771 23.0287 14.9771L23.1768 14.9807C23.5203 15.0089 23.8363 14.7436 23.8779 14.392C23.9834 13.489 23.9847 12.5706 23.8831 11.6609ZM11.9988 17.0256C9.79541 17.0256 8.00328 15.2288 8.00328 13.0199C8.00328 10.8109 9.79541 9.01392 11.9988 9.01392C14.2019 9.01392 15.9942 10.8109 15.9942 13.0199C15.9942 15.2288 14.2019 17.0256 11.9988 17.0256Z" fill="#323D41"/>
</svg>
