<svg width="25" height="20" viewBox="0 0 25 20" fill="none" xmlns="http://www.w3.org/2000/svg">
<path fill-rule="evenodd" clip-rule="evenodd" d="M17.7081 2.9995H22.9165C24.0655 2.9995 24.9998 3.89652 24.9998 4.99965V7.99952C24.9998 9.10264 24.0655 9.99957 22.9165 9.99957H14.5832V9.49948C14.5832 9.22321 14.3502 8.99965 14.0623 8.99965H10.9373C10.6494 8.99965 10.4165 9.22321 10.4165 9.49948V9.99957H2.08318C0.934172 9.99957 -0.000244141 9.10264 -0.000244141 7.99952V4.99965C-0.000244141 3.89652 0.934172 2.9995 2.08318 2.9995H7.29143V1.99939C7.29143 0.896519 8.22582 -0.000366211 9.37486 -0.000366211H15.6248C16.7738 -0.000366211 17.7081 0.896519 17.7081 1.99939V2.9995ZM9.37486 1.99939V2.9995H15.6248V1.99939H9.37486ZM24.1647 10.5884C24.3213 10.4742 24.5334 10.4547 24.7109 10.5391C24.8879 10.6237 24.9998 10.7968 24.9998 10.9868V17.9996C24.9998 19.1026 24.0655 19.9996 22.9165 19.9996H2.08318C0.934172 19.9996 -0.000244141 19.1026 -0.000244141 17.9996V10.9868C-0.000244141 10.7968 0.1117 10.6237 0.28866 10.5391C0.46618 10.4537 0.67786 10.4731 0.834968 10.5884C1.20524 10.8575 1.63661 10.9994 2.08318 10.9994H10.4165V12.4995C10.4165 12.7759 10.6494 12.9995 10.9373 12.9995H14.0623C14.3502 12.9995 14.5832 12.7759 14.5832 12.4995V10.9994H22.9165C23.363 10.9994 23.7944 10.8575 24.1647 10.5884Z" fill="#323D41"/>
</svg>
