<svg width="24" height="24" viewBox="0 0 24 24" fill="none" xmlns="http://www.w3.org/2000/svg">
<path fill-rule="evenodd" clip-rule="evenodd" d="M22.2431 2.18161H4.3635C4.32044 2.18161 4.28039 2.19453 4.24028 2.20749L4.24027 2.20749L4.24027 2.20749C4.23018 2.21075 4.22009 2.214 4.20995 2.21706L3.77049 0.772935C3.63069 0.313692 3.20709 -0.000183105 2.72711 -0.000183105H0.545264C0.243998 -0.000183105 -0.000244141 0.244032 -0.000244141 0.545271V1.63618C-0.000244141 1.93742 0.243998 2.18161 0.545264 2.18161H1.91902L5.32704 13.381L4.05421 14.866C3.55117 15.4529 3.32464 16.2615 3.55614 16.9991C3.85233 17.9422 4.68477 18.5453 5.64454 18.5453H21.2725C21.5738 18.5453 21.818 18.3011 21.818 17.9998V16.9089C21.818 16.6076 21.5738 16.3634 21.2725 16.3634H5.64454L7.37354 14.3462C7.41354 14.2996 7.44384 14.2473 7.47409 14.1952L7.48197 14.1816H18.052C18.8975 14.1816 19.6668 13.6934 20.0268 12.9284L23.8331 4.84016C23.9423 4.60742 23.9998 4.34903 23.9998 4.09283V3.93842C23.9998 2.96817 23.2133 2.18161 22.2431 2.18161ZM6.54526 19.6361C7.75027 19.6361 8.72713 20.613 8.72713 21.818C8.72713 23.023 7.75027 23.9998 6.54526 23.9998C5.34025 23.9998 4.3635 23.023 4.3635 21.818C4.3635 20.613 5.34025 19.6361 6.54526 19.6361ZM21.818 21.818C21.818 20.613 20.8412 19.6361 19.6362 19.6361C18.4312 19.6361 17.4544 20.613 17.4544 21.818C17.4544 23.023 18.4312 23.9998 19.6362 23.9998C20.8412 23.9998 21.818 23.023 21.818 21.818Z" fill="#D22254"/>
</svg>
