<svg width="68" height="36" viewBox="0 0 68 36" fill="none" xmlns="http://www.w3.org/2000/svg">
<path fill-rule="evenodd" clip-rule="evenodd" d="M31.6419 0.999962H39.4385V33.9869H31.6419V0.999962ZM8.79677 24.1801C9.12556 26.8101 11.7557 28.5485 14.8087 28.5485C17.2979 28.5485 18.613 27.5233 19.5523 26.2304H27.5369C26.2688 28.9943 24.437 31.134 22.2296 32.5604C20.0691 34.0315 17.4858 34.7892 14.8087 34.7892C7.34072 34.7892 1 29.0388 1 21.6837C1 14.7743 6.73019 8.39967 14.6677 8.39967C18.66 8.39967 22.0888 9.87067 24.531 12.3226C27.8188 15.6658 28.805 19.6331 28.1944 24.1801H8.79677ZM20.5387 18.5633C20.3509 17.4042 18.754 14.6404 14.7147 14.6404C10.6754 14.6404 9.07859 17.4042 8.89064 18.5633H20.5387ZM50.655 0.999962H42.8582V33.9869H50.655V20.2572C50.655 19.633 50.655 18.4295 51.2187 17.3597C51.7354 16.2898 52.8624 15.3536 55.023 15.3536C56.7139 15.3536 57.7473 15.9779 58.4046 16.9139C59.0154 17.8501 59.203 19.1427 59.203 20.5246V33.9869H67V20.1682C67 17.0029 66.6241 14.061 65.215 11.9213C63.806 9.73707 61.4578 8.39966 57.4655 8.39966C54.694 8.39966 52.064 9.29125 50.655 11.52V8.39966V0.999962Z" fill="#323D41"/>
<path d="M39.4385 0.999962H39.9385V0.499962H39.4385V0.999962ZM31.6419 0.999962V0.499962H31.1419V0.999962H31.6419ZM39.4385 33.9869V34.4869H39.9385V33.9869H39.4385ZM31.6419 33.9869H31.1419V34.4869H31.6419V33.9869ZM8.79677 24.1801V23.6801H8.23037L8.30064 24.2422L8.79677 24.1801ZM19.5523 26.2304V25.7304H19.2976L19.1478 25.9365L19.5523 26.2304ZM27.5369 26.2304L27.9914 26.4389L28.3164 25.7304H27.5369V26.2304ZM22.2296 32.5604L21.9581 32.1404L21.9482 32.1471L22.2296 32.5604ZM24.531 12.3226L24.8875 11.972L24.8853 11.9697L24.531 12.3226ZM28.1944 24.1801V24.6801H28.6318L28.69 24.2467L28.1944 24.1801ZM20.5387 18.5633V19.0633H21.1262L21.0323 18.4833L20.5387 18.5633ZM8.89064 18.5633L8.39709 18.4832L8.30303 19.0633H8.89064V18.5633ZM42.8582 0.999962V0.499962H42.3582V0.999962H42.8582ZM50.655 0.999962H51.155V0.499962H50.655V0.999962ZM42.8582 33.9869H42.3582V34.4869H42.8582V33.9869ZM50.655 33.9869V34.4869H51.155V33.9869H50.655ZM51.2187 17.3597L51.661 17.5928L51.6651 17.585L51.6689 17.5771L51.2187 17.3597ZM58.4046 16.9139L58.8233 16.6407L58.8186 16.6336L58.8138 16.6266L58.4046 16.9139ZM59.203 33.9869H58.703V34.4869H59.203V33.9869ZM67 33.9869V34.4869H67.5V33.9869H67ZM65.215 11.9213L64.7949 12.1923L64.7975 12.1963L65.215 11.9213ZM50.655 11.52H50.155V13.2466L51.0776 11.7872L50.655 11.52ZM39.4385 0.499962H31.6419V1.49996H39.4385V0.499962ZM39.9385 33.9869V0.999962H38.9385V33.9869H39.9385ZM31.6419 34.4869H39.4385V33.4869H31.6419V34.4869ZM31.1419 0.999962V33.9869H32.1419V0.999962H31.1419ZM14.8087 28.0485C11.9061 28.0485 9.57925 26.4085 9.29291 24.1181L8.30064 24.2422C8.67187 27.2116 11.6053 29.0485 14.8087 29.0485V28.0485ZM19.1478 25.9365C18.7068 26.5435 18.1948 27.0643 17.5201 27.4365C16.8473 27.8078 15.9817 28.0485 14.8087 28.0485V29.0485C16.1249 29.0485 17.1614 28.7766 18.0033 28.3121C18.8433 27.8485 19.4585 27.2102 19.9569 26.5243L19.1478 25.9365ZM27.5369 25.7304H19.5523V26.7304H27.5369V25.7304ZM22.501 32.9804C24.7958 31.4975 26.6875 29.2808 27.9914 26.4389L27.0825 26.0219C25.8501 28.7079 24.0782 30.7706 21.9582 32.1405L22.501 32.9804ZM14.8087 35.2892C17.5799 35.2892 20.2626 34.5046 22.511 32.9737L21.9482 32.1471C19.8757 33.5583 17.3916 34.2892 14.8087 34.2892V35.2892ZM0.5 21.6837C0.5 29.3457 7.09635 35.2892 14.8087 35.2892V34.2892C7.5851 34.2892 1.5 28.7319 1.5 21.6837H0.5ZM14.6677 7.89967C6.44778 7.89967 0.5 14.5045 0.5 21.6837H1.5C1.5 15.0441 7.01261 8.89967 14.6677 8.89967V7.89967ZM24.8853 11.9697C22.345 9.41948 18.787 7.89967 14.6677 7.89967V8.89967C18.533 8.89967 21.8325 10.3219 24.1768 12.6754L24.8853 11.9697ZM28.69 24.2467C29.3174 19.574 28.3016 15.4437 24.8875 11.972L24.1745 12.6731C27.336 15.8879 28.2926 19.6921 27.6989 24.1136L28.69 24.2467ZM8.79677 24.6801H28.1944V23.6801H8.79677V24.6801ZM14.7147 15.1404C18.4843 15.1404 19.8925 17.7014 20.0451 18.6432L21.0323 18.4833C20.8092 17.107 19.0236 14.1404 14.7147 14.1404V15.1404ZM9.3842 18.6433C9.53693 17.7014 10.9451 15.1404 14.7147 15.1404V14.1404C10.4057 14.1404 8.62025 17.107 8.39709 18.4832L9.3842 18.6433ZM20.5387 18.0633H8.89064V19.0633H20.5387V18.0633ZM42.8582 1.49996H50.655V0.499962H42.8582V1.49996ZM43.3582 33.9869V0.999962H42.3582V33.9869H43.3582ZM50.655 33.4869H42.8582V34.4869H50.655V33.4869ZM50.155 20.2572V33.9869H51.155V20.2572H50.155ZM50.7763 17.1266C50.1482 18.3187 50.155 19.64 50.155 20.2572H51.155C51.155 19.6261 51.1618 18.5402 51.661 17.5928L50.7763 17.1266ZM55.023 14.8536C52.6885 14.8536 51.3762 15.8839 50.7684 17.1422L51.6689 17.5771C52.0946 16.6956 53.0362 15.8536 55.023 15.8536V14.8536ZM58.8138 16.6266C58.0545 15.5453 56.8617 14.8536 55.023 14.8536V15.8536C56.5662 15.8536 57.4401 16.4104 57.9954 17.2013L58.8138 16.6266ZM59.703 20.5246C59.703 19.1181 59.5163 17.7028 58.8233 16.6407L57.9858 17.1871C58.5145 17.9974 58.703 19.1672 58.703 20.5246H59.703ZM59.703 33.9869V20.5246H58.703V33.9869H59.703ZM67 33.4869H59.203V34.4869H67V33.4869ZM66.5 20.1682V33.9869H67.5V20.1682H66.5ZM64.7975 12.1963C66.1208 14.2059 66.5 17.0192 66.5 20.1682H67.5C67.5 16.9866 67.1273 13.9161 65.6326 11.6463L64.7975 12.1963ZM57.4655 8.89966C61.328 8.89966 63.4977 10.1815 64.7949 12.1923L65.6352 11.6502C64.1143 9.29261 61.5876 7.89966 57.4655 7.89966V8.89966ZM51.0776 11.7872C52.3575 9.76265 54.7811 8.89966 57.4655 8.89966V7.89966C54.607 7.89966 51.7704 8.81986 50.2323 11.2528L51.0776 11.7872ZM50.155 8.39966V11.52H51.155V8.39966H50.155ZM50.155 0.999962V8.39966H51.155V0.999962H50.155Z" fill="black"/>
</svg>
