<svg width="31" height="31" viewBox="0 0 31 31" fill="none" xmlns="http://www.w3.org/2000/svg">
<mask id="path-1-outside-1" maskUnits="userSpaceOnUse" x="0.0498047" y="0.632042" width="31" height="31" fill="black">
<rect fill="white" x="0.0498047" y="0.632042" width="31" height="31"/>
<path fill-rule="evenodd" clip-rule="evenodd" d="M15.3562 29.2311C6.34636 29.2311 1.48485 22.2325 1.48485 15.6474V15.6026C1.48485 9.03928 6.34636 2.06354 15.3562 2.06354C24.3661 2.06354 29.2277 9.06233 29.2277 15.6474C29.2277 22.2325 24.3661 29.2311 15.3562 29.2311ZM15.3562 9.83716C12.2486 9.83716 9.81444 12.3892 9.81444 15.6474V15.692C9.81444 18.9249 12.2486 21.4573 15.3562 21.4573C18.4638 21.4573 20.8981 18.9054 20.8981 15.6474C20.8981 12.3892 18.4638 9.83716 15.3562 9.83716ZM15.3562 2.49513C24.4337 2.49513 28.7928 9.58389 28.7928 15.6474C28.7928 21.7106 24.4337 28.7994 15.3562 28.7994C6.27902 28.7994 1.9198 21.7106 1.9198 15.6474V15.6026C1.9198 9.58389 6.27902 2.49513 15.3562 2.49513ZM15.3562 21.889C18.5919 21.889 21.3329 19.2586 21.3329 15.6474C21.3329 12.036 18.5919 9.40556 15.3562 9.40556C12.1208 9.40556 9.37938 12.036 9.37938 15.6474V15.692C9.37938 19.2586 12.1208 21.889 15.3562 21.889ZM15.3562 1.63204C6.06384 1.63204 1.0498 8.83005 1.0498 15.6026V15.6474C1.0498 22.4416 6.06384 29.6626 15.3562 29.6626C24.6487 29.6626 29.6628 22.4416 29.6628 15.6474C29.6628 8.85303 24.6487 1.63204 15.3562 1.63204ZM15.3562 21.0259C12.4925 21.0259 10.2495 18.6829 10.2495 15.692V15.6474C10.2495 12.6313 12.4925 10.2687 15.3562 10.2687C18.2198 10.2687 20.463 12.6313 20.463 15.6474C20.463 18.6633 18.2198 21.0259 15.3562 21.0259Z"/>
</mask>
<path fill-rule="evenodd" clip-rule="evenodd" d="M15.3562 29.2311C6.34636 29.2311 1.48485 22.2325 1.48485 15.6474V15.6026C1.48485 9.03928 6.34636 2.06354 15.3562 2.06354C24.3661 2.06354 29.2277 9.06233 29.2277 15.6474C29.2277 22.2325 24.3661 29.2311 15.3562 29.2311ZM15.3562 9.83716C12.2486 9.83716 9.81444 12.3892 9.81444 15.6474V15.692C9.81444 18.9249 12.2486 21.4573 15.3562 21.4573C18.4638 21.4573 20.8981 18.9054 20.8981 15.6474C20.8981 12.3892 18.4638 9.83716 15.3562 9.83716ZM15.3562 2.49513C24.4337 2.49513 28.7928 9.58389 28.7928 15.6474C28.7928 21.7106 24.4337 28.7994 15.3562 28.7994C6.27902 28.7994 1.9198 21.7106 1.9198 15.6474V15.6026C1.9198 9.58389 6.27902 2.49513 15.3562 2.49513ZM15.3562 21.889C18.5919 21.889 21.3329 19.2586 21.3329 15.6474C21.3329 12.036 18.5919 9.40556 15.3562 9.40556C12.1208 9.40556 9.37938 12.036 9.37938 15.6474V15.692C9.37938 19.2586 12.1208 21.889 15.3562 21.889ZM15.3562 1.63204C6.06384 1.63204 1.0498 8.83005 1.0498 15.6026V15.6474C1.0498 22.4416 6.06384 29.6626 15.3562 29.6626C24.6487 29.6626 29.6628 22.4416 29.6628 15.6474C29.6628 8.85303 24.6487 1.63204 15.3562 1.63204ZM15.3562 21.0259C12.4925 21.0259 10.2495 18.6829 10.2495 15.692V15.6474C10.2495 12.6313 12.4925 10.2687 15.3562 10.2687C18.2198 10.2687 20.463 12.6313 20.463 15.6474C20.463 18.6633 18.2198 21.0259 15.3562 21.0259Z" fill="#323D41"/>
<path d="M15.3562 28.2311C6.98517 28.2311 2.48485 21.7709 2.48485 15.6474H0.484855C0.484855 22.6941 5.70755 30.2311 15.3562 30.2311V28.2311ZM2.48485 15.6474V15.6026H0.484855V15.6474H2.48485ZM2.48485 15.6026C2.48485 9.5041 6.98222 3.06354 15.3562 3.06354V1.06354C5.71049 1.06354 0.484855 8.57446 0.484855 15.6026H2.48485ZM15.3562 3.06354C23.7273 3.06354 28.2277 9.52393 28.2277 15.6474H30.2277C30.2277 8.60074 25.005 1.06354 15.3562 1.06354V3.06354ZM28.2277 15.6474C28.2277 21.7709 23.7273 28.2311 15.3562 28.2311V30.2311C25.0049 30.2311 30.2277 22.6941 30.2277 15.6474H28.2277ZM15.3562 8.83716C11.6522 8.83716 8.81444 11.8821 8.81444 15.6474H10.8144C10.8144 12.8964 12.8449 10.8372 15.3562 10.8372V8.83716ZM8.81444 15.6474V15.692H10.8144V15.6474H8.81444ZM8.81444 15.692C8.81444 19.4396 11.6594 22.4573 15.3562 22.4573V20.4573C12.8378 20.4573 10.8144 18.4103 10.8144 15.692H8.81444ZM15.3562 22.4573C19.0601 22.4573 21.8981 19.4127 21.8981 15.6474H19.8981C19.8981 18.3982 17.8676 20.4573 15.3562 20.4573V22.4573ZM21.8981 15.6474C21.8981 11.882 19.0602 8.83716 15.3562 8.83716V10.8372C17.8675 10.8372 19.8981 12.8964 19.8981 15.6474H21.8981ZM15.3562 3.49513C23.7643 3.49513 27.7928 10.0113 27.7928 15.6474H29.7928C29.7928 9.15647 25.103 1.49513 15.3562 1.49513V3.49513ZM27.7928 15.6474C27.7928 21.2832 23.7643 27.7994 15.3562 27.7994V29.7994C25.103 29.7994 29.7928 22.1381 29.7928 15.6474H27.7928ZM15.3562 27.7994C6.94838 27.7994 2.9198 21.2832 2.9198 15.6474H0.9198C0.9198 22.1381 5.60965 29.7994 15.3562 29.7994V27.7994ZM2.9198 15.6474V15.6026H0.9198V15.6474H2.9198ZM2.9198 15.6026C2.9198 10.0135 6.94646 3.49513 15.3562 3.49513V1.49513C5.61157 1.49513 0.9198 9.15427 0.9198 15.6026H2.9198ZM15.3562 22.889C19.1607 22.889 22.3329 19.7943 22.3329 15.6474H20.3329C20.3329 18.723 18.0232 20.889 15.3562 20.889V22.889ZM22.3329 15.6474C22.3329 11.5003 19.1607 8.40556 15.3562 8.40556V10.4056C18.0231 10.4056 20.3329 12.5716 20.3329 15.6474H22.3329ZM15.3562 8.40556C11.552 8.40556 8.37938 11.5003 8.37938 15.6474H10.3794C10.3794 12.5717 12.6895 10.4056 15.3562 10.4056V8.40556ZM8.37938 15.6474V15.692H10.3794V15.6474H8.37938ZM8.37938 15.692C8.37938 19.7991 11.5568 22.889 15.3562 22.889V20.889C12.6848 20.889 10.3794 18.7181 10.3794 15.692H8.37938ZM15.3562 0.632042C5.42753 0.632042 0.0498047 8.3657 0.0498047 15.6026H2.0498C2.0498 9.29439 6.70014 2.63204 15.3562 2.63204V0.632042ZM0.0498047 15.6026V15.6474H2.0498V15.6026H0.0498047ZM0.0498047 15.6474C0.0498047 22.9029 5.42469 30.6626 15.3562 30.6626V28.6626C6.70298 28.6626 2.0498 21.9804 2.0498 15.6474H0.0498047ZM15.3562 30.6626C25.2878 30.6626 30.6628 22.9029 30.6628 15.6474H28.6628C28.6628 21.9804 24.0095 28.6626 15.3562 28.6626V30.6626ZM30.6628 15.6474C30.6628 8.39182 25.2878 0.632042 15.3562 0.632042V2.63204C24.0095 2.63204 28.6628 9.31425 28.6628 15.6474H30.6628ZM15.3562 20.0259C13.0854 20.0259 11.2495 18.1721 11.2495 15.692H9.24949C9.24949 19.1937 11.8996 22.0259 15.3562 22.0259V20.0259ZM11.2495 15.692V15.6474H9.24949V15.692H11.2495ZM11.2495 15.6474C11.2495 13.134 13.0931 11.2687 15.3562 11.2687V9.26869C11.892 9.26869 9.24949 12.1285 9.24949 15.6474H11.2495ZM15.3562 11.2687C17.6193 11.2687 19.463 13.1341 19.463 15.6474H21.463C21.463 12.1285 18.8203 9.26869 15.3562 9.26869V11.2687ZM19.463 15.6474C19.463 18.1605 17.6193 20.0259 15.3562 20.0259V22.0259C18.8203 22.0259 21.463 19.1661 21.463 15.6474H19.463Z" fill="white" mask="url(#path-1-outside-1)"/>
</svg>
