<svg width="33" height="33" viewBox="0 0 33 33" fill="none" xmlns="http://www.w3.org/2000/svg">
<path fill-rule="evenodd" clip-rule="evenodd" d="M32.7444 14.4764C32.6938 14.0259 32.1683 13.6874 31.7143 13.6874C30.2457 13.6874 28.9425 12.8251 28.396 11.4915C27.8376 10.1255 28.1978 8.5326 29.2923 7.52843C29.6366 7.21345 29.6785 6.68643 29.3895 6.32001C28.638 5.36566 27.7837 4.50346 26.8508 3.7561C26.4856 3.46283 25.9497 3.50373 25.6329 3.8545C24.6777 4.9124 22.9621 5.30572 21.6361 4.75234C20.2565 4.17195 19.3865 2.77378 19.4716 1.27302C19.4997 0.801574 19.1551 0.391753 18.6852 0.337035C17.4882 0.198654 16.2806 0.194141 15.0799 0.327304C14.6154 0.378849 14.2709 0.778974 14.2865 1.24443C14.3387 2.73045 13.4581 4.10411 12.0921 4.66353C10.7823 5.19868 9.07857 4.80885 8.12512 3.76036C7.81018 3.41499 7.28297 3.37258 6.91598 3.65851C5.95566 4.41225 5.08186 5.27526 4.3234 6.22168C4.02768 6.58983 4.07105 7.12337 4.41901 7.43983C5.53444 8.44992 5.89463 10.0569 5.31511 11.4384C4.76199 12.7558 3.39411 13.6048 1.82822 13.6048C1.32025 13.5883 0.958275 13.9293 0.902698 14.3914C0.761722 15.5954 0.759942 16.8221 0.895797 18.036C0.94607 18.4882 1.48724 18.8238 1.94653 18.8238C3.34198 18.7883 4.68182 19.6521 5.24391 21.02C5.80404 22.3859 5.44384 23.9777 4.34785 24.9828C4.0048 25.2978 3.96143 25.824 4.25035 26.1903C4.99483 27.1387 5.84926 28.0019 6.78546 28.7553C7.15267 29.0512 7.68686 29.0095 8.00517 28.6585C8.96393 27.5981 10.6796 27.2057 12.0001 27.7599C13.3834 28.3386 14.2534 29.7367 14.1682 31.2383C14.1405 31.71 14.4866 32.1204 14.9547 32.1744C15.567 32.2457 16.1831 32.2815 16.8008 32.2815C17.3871 32.2815 17.9736 32.2493 18.5599 32.184C19.0247 32.1327 19.369 31.7327 19.3533 31.2663C19.2995 29.781 20.1815 28.4074 21.5458 27.8487C22.8646 27.3102 24.5613 27.7044 25.5145 28.7519C25.8314 29.0964 26.3549 29.1381 26.724 28.8529C27.6826 28.1013 28.5544 27.2388 29.3164 26.2898C29.6122 25.9226 29.5704 25.3881 29.2208 25.0718C28.1054 24.0618 27.7433 22.4547 28.3229 21.074C28.8676 19.7741 30.1846 18.9014 31.6011 18.9014L31.7994 18.9067C32.2589 18.944 32.6815 18.5899 32.7373 18.1211C32.8785 16.9158 32.8802 15.6901 32.7444 14.4764ZM16.8455 21.6352C13.8978 21.6352 11.5002 19.2375 11.5002 16.2899C11.5002 13.3422 13.8978 10.9445 16.8455 10.9445C19.7929 10.9445 22.1905 13.3422 22.1905 16.2899C22.1905 19.2375 19.7929 21.6352 16.8455 21.6352Z" fill="#D22254"/>
</svg>
