<svg width="26" height="17" viewBox="0 0 26 17" fill="none" xmlns="http://www.w3.org/2000/svg">
<path fill-rule="evenodd" clip-rule="evenodd" d="M26 3.2233V3.85786H0V3.2233C0 1.4458 1.47639 -0.00012207 3.29075 -0.00012207H22.7093C24.5236 -0.00012207 26 1.4458 26 3.2233ZM26 5.46638H0V7.45514H26V5.46638ZM0 9.06364V13.7766C0 15.554 1.47639 16.9999 3.29075 16.9999H22.7093C24.5236 16.9999 26 15.554 26 13.7766V9.06364H0ZM19.0673 13.3758C18.5889 13.3758 18.2011 12.9956 18.2011 12.527C18.2011 12.0583 18.5889 11.6786 19.0673 11.6786C19.5458 11.6786 19.9335 12.0583 19.9335 12.527C19.9335 12.9956 19.5458 13.3758 19.0673 13.3758ZM21.496 13.3758C21.0176 13.3758 20.6299 12.9956 20.6299 12.527C20.6299 12.0583 21.0176 11.6786 21.496 11.6786C21.9745 11.6786 22.3625 12.0583 22.3625 12.527C22.3625 12.9956 21.9745 13.3758 21.496 13.3758Z" fill="#323D41"/>
</svg>
