<svg width="31" height="31" viewBox="0 0 31 31" fill="none" xmlns="http://www.w3.org/2000/svg">
<mask id="path-1-outside-1" maskUnits="userSpaceOnUse" x="0.0498657" y="0.631737" width="31" height="31" fill="black">
<rect fill="white" x="0.0498657" y="0.631737" width="31" height="31"/>
<path fill-rule="evenodd" clip-rule="evenodd" d="M15.3563 29.2309C6.34642 29.2309 1.48492 22.2322 1.48492 15.6471V15.6024C1.48492 9.03887 6.34642 2.06333 15.3563 2.06333C24.3662 2.06333 29.2278 9.06203 29.2278 15.6471C29.2278 22.2322 24.3662 29.2309 15.3563 29.2309ZM15.3563 9.83696C12.2486 9.83696 9.8145 12.389 9.8145 15.6471V15.6919C9.8145 18.9248 12.2486 21.4571 15.3563 21.4571C18.4639 21.4571 20.8981 18.9052 20.8981 15.6471C20.8981 12.389 18.4639 9.83696 15.3563 9.83696ZM15.3563 2.49476C24.4337 2.49476 28.7928 9.58362 28.7928 15.6473C28.7928 21.7104 24.4337 28.7993 15.3563 28.7993C6.27908 28.7993 1.91986 21.7104 1.91986 15.6473V15.6024C1.91986 9.58362 6.27908 2.49476 15.3563 2.49476ZM15.3563 21.8887C18.592 21.8887 21.333 19.2583 21.333 15.6473C21.333 12.0358 18.592 9.40529 15.3563 9.40529C12.1208 9.40529 9.37945 12.0358 9.37945 15.6473V15.6919C9.37945 19.2583 12.1208 21.8887 15.3563 21.8887ZM15.3563 1.63174C6.0639 1.63174 1.04987 8.82964 1.04987 15.6024V15.6473C1.04987 22.4413 6.0639 29.6622 15.3563 29.6622C24.6487 29.6622 29.6628 22.4413 29.6628 15.6473C29.6628 8.85283 24.6487 1.63174 15.3563 1.63174ZM15.3563 21.0257C12.4926 21.0257 10.2495 18.6826 10.2495 15.6919V15.6473C10.2495 12.631 12.4926 10.2684 15.3563 10.2684C18.2199 10.2684 20.4631 12.631 20.4631 15.6473C20.4631 18.6631 18.2199 21.0257 15.3563 21.0257Z"/>
</mask>
<path fill-rule="evenodd" clip-rule="evenodd" d="M15.3563 29.2309C6.34642 29.2309 1.48492 22.2322 1.48492 15.6471V15.6024C1.48492 9.03887 6.34642 2.06333 15.3563 2.06333C24.3662 2.06333 29.2278 9.06203 29.2278 15.6471C29.2278 22.2322 24.3662 29.2309 15.3563 29.2309ZM15.3563 9.83696C12.2486 9.83696 9.8145 12.389 9.8145 15.6471V15.6919C9.8145 18.9248 12.2486 21.4571 15.3563 21.4571C18.4639 21.4571 20.8981 18.9052 20.8981 15.6471C20.8981 12.389 18.4639 9.83696 15.3563 9.83696ZM15.3563 2.49476C24.4337 2.49476 28.7928 9.58362 28.7928 15.6473C28.7928 21.7104 24.4337 28.7993 15.3563 28.7993C6.27908 28.7993 1.91986 21.7104 1.91986 15.6473V15.6024C1.91986 9.58362 6.27908 2.49476 15.3563 2.49476ZM15.3563 21.8887C18.592 21.8887 21.333 19.2583 21.333 15.6473C21.333 12.0358 18.592 9.40529 15.3563 9.40529C12.1208 9.40529 9.37945 12.0358 9.37945 15.6473V15.6919C9.37945 19.2583 12.1208 21.8887 15.3563 21.8887ZM15.3563 1.63174C6.0639 1.63174 1.04987 8.82964 1.04987 15.6024V15.6473C1.04987 22.4413 6.0639 29.6622 15.3563 29.6622C24.6487 29.6622 29.6628 22.4413 29.6628 15.6473C29.6628 8.85283 24.6487 1.63174 15.3563 1.63174ZM15.3563 21.0257C12.4926 21.0257 10.2495 18.6826 10.2495 15.6919V15.6473C10.2495 12.631 12.4926 10.2684 15.3563 10.2684C18.2199 10.2684 20.4631 12.631 20.4631 15.6473C20.4631 18.6631 18.2199 21.0257 15.3563 21.0257Z" fill="#323D41"/>
<path d="M15.3563 28.2309C6.98523 28.2309 2.48492 21.7706 2.48492 15.6471H0.484916C0.484916 22.6938 5.7076 30.2309 15.3563 30.2309V28.2309ZM2.48492 15.6471V15.6024H0.484916V15.6471H2.48492ZM2.48492 15.6024C2.48492 9.50371 6.98227 3.06333 15.3563 3.06333V1.06333C5.71056 1.06333 0.484916 8.57404 0.484916 15.6024H2.48492ZM15.3563 3.06333C23.7274 3.06333 28.2278 9.52363 28.2278 15.6471H30.2278C30.2278 8.60043 25.005 1.06333 15.3563 1.06333V3.06333ZM28.2278 15.6471C28.2278 21.7706 23.7274 28.2309 15.3563 28.2309V30.2309C25.005 30.2309 30.2278 22.6938 30.2278 15.6471H28.2278ZM15.3563 8.83696C11.6523 8.83696 8.8145 11.8818 8.8145 15.6471H10.8145C10.8145 12.8962 12.845 10.837 15.3563 10.837V8.83696ZM8.8145 15.6471V15.6919H10.8145V15.6471H8.8145ZM8.8145 15.6919C8.8145 19.4395 11.6595 22.4571 15.3563 22.4571V20.4571C12.8378 20.4571 10.8145 18.4102 10.8145 15.6919H8.8145ZM15.3563 22.4571C19.0602 22.4571 21.8981 19.4125 21.8981 15.6471H19.8981C19.8981 18.398 17.8676 20.4571 15.3563 20.4571V22.4571ZM21.8981 15.6471C21.8981 11.8818 19.0602 8.83696 15.3563 8.83696V10.837C17.8676 10.837 19.8981 12.8962 19.8981 15.6471H21.8981ZM15.3563 3.49476C23.7643 3.49476 27.7928 10.011 27.7928 15.6473H29.7928C29.7928 9.15622 25.1031 1.49476 15.3563 1.49476V3.49476ZM27.7928 15.6473C27.7928 21.283 23.7643 27.7993 15.3563 27.7993V29.7993C25.1031 29.7993 29.7928 22.1379 29.7928 15.6473H27.7928ZM15.3563 27.7993C6.94845 27.7993 2.91986 21.283 2.91986 15.6473H0.919861C0.919861 22.1379 5.60971 29.7993 15.3563 29.7993V27.7993ZM2.91986 15.6473V15.6024H0.919861V15.6473H2.91986ZM2.91986 15.6024C2.91986 10.0132 6.94653 3.49476 15.3563 3.49476V1.49476C5.61163 1.49476 0.919861 9.15401 0.919861 15.6024H2.91986ZM15.3563 22.8887C19.1607 22.8887 22.333 19.794 22.333 15.6473H20.333C20.333 18.7226 18.0232 20.8887 15.3563 20.8887V22.8887ZM22.333 15.6473C22.333 11.5002 19.1608 8.40529 15.3563 8.40529V10.4053C18.0232 10.4053 20.333 12.5714 20.333 15.6473H22.333ZM15.3563 8.40529C11.5521 8.40529 8.37945 11.5001 8.37945 15.6473H10.3794C10.3794 12.5714 12.6896 10.4053 15.3563 10.4053V8.40529ZM8.37945 15.6473V15.6919H10.3794V15.6473H8.37945ZM8.37945 15.6919C8.37945 19.7989 11.5569 22.8887 15.3563 22.8887V20.8887C12.6848 20.8887 10.3794 18.7178 10.3794 15.6919H8.37945ZM15.3563 0.631737C5.4276 0.631737 0.0498657 8.36529 0.0498657 15.6024H2.04987C2.04987 9.29398 6.7002 2.63174 15.3563 2.63174V0.631737ZM0.0498657 15.6024V15.6473H2.04987V15.6024H0.0498657ZM0.0498657 15.6473C0.0498657 22.9026 5.42476 30.6622 15.3563 30.6622V28.6622C6.70303 28.6622 2.04987 21.9801 2.04987 15.6473H0.0498657ZM15.3563 30.6622C25.2878 30.6622 30.6628 22.9026 30.6628 15.6473H28.6628C28.6628 21.9801 24.0096 28.6622 15.3563 28.6622V30.6622ZM30.6628 15.6473C30.6628 8.39162 25.2879 0.631737 15.3563 0.631737V2.63174C24.0096 2.63174 28.6628 9.31403 28.6628 15.6473H30.6628ZM15.3563 20.0257C13.0855 20.0257 11.2495 18.1718 11.2495 15.6919H9.24955C9.24955 19.1934 11.8997 22.0257 15.3563 22.0257V20.0257ZM11.2495 15.6919V15.6473H9.24955V15.6919H11.2495ZM11.2495 15.6473C11.2495 13.1337 13.0932 11.2684 15.3563 11.2684V9.26838C11.892 9.26838 9.24955 12.1283 9.24955 15.6473H11.2495ZM15.3563 11.2684C17.6193 11.2684 19.4631 13.1337 19.4631 15.6473H21.4631C21.4631 12.1282 18.8204 9.26838 15.3563 9.26838V11.2684ZM19.4631 15.6473C19.4631 18.1603 17.6194 20.0257 15.3563 20.0257V22.0257C18.8203 22.0257 21.4631 19.1659 21.4631 15.6473H19.4631Z" fill="white" mask="url(#path-1-outside-1)"/>
</svg>
