<svg width="16" height="22" viewBox="0 0 16 22" fill="none" xmlns="http://www.w3.org/2000/svg">
<path fill-rule="evenodd" clip-rule="evenodd" d="M5 -0.000183105H11V2.55982H5V-0.000183105ZM3.60002 11.9699H4.80007V13.259H3.60002V11.9699ZM12.2001 3.84887V1.27079H16V21.9997H0V1.27079H3.80006V3.84887H12.2001ZM6.00001 5.35272H2.39999V9.22009H6.00001V5.35272ZM6.00001 10.6809H2.39999V14.5481H6.00001V10.6809ZM2.09587 17.9259L3.72007 19.6707L6.34435 16.8517L5.49586 15.94L3.72007 17.8475L2.94437 17.0143L2.09587 17.9259ZM8.00001 18.5012H13.6V17.2121H8.00001V18.5012ZM8.00001 13.259H13.6V11.9699H8.00001V13.259ZM8.00001 7.93094H13.6V6.64177H8.00001V7.93094ZM4.80007 6.64177H3.60002V7.93094H4.80007V6.64177Z" fill="#F2F5FA"/>
</svg>
