<svg width="29" height="25" viewBox="0 0 29 25" fill="none" xmlns="http://www.w3.org/2000/svg">
<path fill-rule="evenodd" clip-rule="evenodd" d="M25.3747 7.14264L21.7497 12.4998H23.5622C23.5622 17.4227 19.4965 21.4284 14.4998 21.4284C11.4249 21.4284 8.71179 19.9043 7.07275 17.5901L4.95934 20.7134C7.28689 23.3341 10.696 24.9998 14.4998 24.9998C21.4958 24.9998 27.1872 19.3925 27.1872 12.4998H28.9998L25.3747 7.14264ZM5.43729 12.4998C5.43729 7.57695 9.50299 3.57122 14.4998 3.57122C17.5746 3.57122 20.2877 5.09528 21.9268 7.40951L24.0402 4.2862C21.7126 1.66554 18.3035 -0.000183105 14.4998 -0.000183105C7.50372 -0.000183105 1.81227 5.60718 1.81227 12.4998H-0.000244141L3.62478 17.857L7.24971 12.4998H5.43729Z" fill="#D22254"/>
</svg>
