<svg width="20" height="26" viewBox="0 0 20 26" fill="none" xmlns="http://www.w3.org/2000/svg">
<path fill-rule="evenodd" clip-rule="evenodd" d="M15.7944 22.7499C12.1023 22.7499 8.8794 20.7843 7.14709 17.8749H15.8334V14.6249H5.94483C5.8532 14.0952 5.79434 13.5545 5.79434 12.9999C5.79434 12.4454 5.8532 11.9046 5.94483 11.3749H15.8334V8.12487H7.14709C8.8794 5.2153 12.1023 3.24991 15.7944 3.24991C17.0182 3.24991 18.2308 3.4737 19.3978 3.91485L20 0.883859C18.4473 0.297537 17.4317 -6.10352e-05 15.7944 -6.10352e-05C10.2111 -6.10352e-05 5.42563 3.3669 3.44271 8.12487H0V11.3749H2.57678C2.50813 11.9087 2.46098 12.4485 2.46098 12.9999C2.46098 13.5514 2.50813 14.0915 2.57678 14.6249H0V17.8749H3.44271C5.42563 22.633 10.2111 25.9999 15.7944 25.9999C17.4317 25.9999 18.4473 25.7023 20 25.116L19.3978 22.085C18.2308 22.5261 17.0182 22.7499 15.7944 22.7499Z" fill="#323D41"/>
</svg>
