<svg width="28" height="27" viewBox="0 0 28 27" fill="none" xmlns="http://www.w3.org/2000/svg">
<path fill-rule="evenodd" clip-rule="evenodd" d="M7.46623 2.16103L5.59798 0.26965C2.40145 2.70271 0.266631 6.47872 0 10.7947H2.66975C2.93641 7.15033 4.66801 4.04566 7.46623 2.16103ZM25.3301 10.7947H28C27.7333 6.47872 25.7334 2.70271 22.532 0.26965L20.6621 2.16103C23.3319 4.04566 25.0635 7.15033 25.3301 10.7947ZM22.6687 11.4748C22.6687 7.28872 19.8688 3.9142 16.0024 2.97256V2.02273C16.0024 0.94288 15.0641 -0.000200272 13.9958 -0.000200272C12.9359 -0.000200272 11.9976 0.94288 11.9976 2.02273V2.97256C8.13111 3.9142 5.33132 7.28872 5.33132 11.4748V18.8953L2.66975 21.5982V22.9497H25.3301V21.5982L22.6687 18.8953V11.4748ZM13.9958 26.9958H14.5308C15.4674 26.8642 16.1323 26.186 16.399 25.3744C16.5356 25.1044 16.6656 24.7028 16.6656 24.2929H11.3343C11.3343 25.7826 12.5326 26.9958 13.9958 26.9958Z" fill="#323D41"/>
</svg>
