<svg width="38" height="30" viewBox="0 0 38 30" fill="none" xmlns="http://www.w3.org/2000/svg">
<path fill-rule="evenodd" clip-rule="evenodd" d="M26.4869 4.48732H34.2772C35.9958 4.48732 37.3932 5.82886 37.3932 7.47872V11.9659C37.3932 13.6158 35.9958 14.9573 34.2772 14.9573H21.8128V14.2094C21.8128 13.7961 21.4644 13.4617 21.0338 13.4617H16.3596C15.9291 13.4617 15.5806 13.7961 15.5806 14.2094V14.9573H3.11624C1.39764 14.9573 0 13.6158 0 11.9659V7.47872C0 5.82886 1.39764 4.48732 3.11624 4.48732H10.9064V2.99157C10.9064 1.34164 12.304 0 14.0226 0H23.3708C25.0894 0 26.4869 1.34164 26.4869 2.99157V4.48732ZM14.0226 2.99157V4.48732H23.3708V2.99157H14.0226ZM36.1442 15.8381C36.3785 15.6672 36.6956 15.6381 36.9612 15.7644C37.2259 15.8908 37.3932 16.1499 37.3932 16.4341V26.9231C37.3932 28.573 35.9958 29.9146 34.2772 29.9146H3.11628C1.39767 29.9146 3.43621e-05 28.573 3.43621e-05 26.9231V16.4341C3.43621e-05 16.1499 0.167421 15.8908 0.432203 15.7644C0.697675 15.6366 1.0143 15.6658 1.24932 15.8381C1.80313 16.2405 2.44831 16.4531 3.11628 16.4531H15.5806V18.6966C15.5806 19.1101 15.9291 19.4445 16.3597 19.4445H21.0338C21.4644 19.4445 21.8128 19.1101 21.8128 18.6966V16.4531H34.2772C34.9452 16.4531 35.5904 16.2405 36.1442 15.8381Z" fill="#D22254"/>
</svg>
