<svg width="35" height="35" viewBox="0 0 35 35" fill="none" xmlns="http://www.w3.org/2000/svg">
<path fill-rule="evenodd" clip-rule="evenodd" d="M26.4249 15.5747C26.9499 16.2747 27.4749 17.1497 27.8249 18.0247C27.9999 18.3747 27.9999 18.7247 27.8249 18.8997L19.0749 27.6496C18.725 27.9996 18.3749 27.9996 18.0249 27.8247C17.15 27.4747 16.275 26.9497 15.4001 26.4247L15.4 26.4246C14.7 29.0496 14.875 31.6747 15.75 33.9496C10.675 32.0246 8.22494 26.7747 9.10003 21.3496C3.84996 15.9247 0.175032 8.39969 0 0.87476C0 0.349781 0.350064 -0.000244141 0.875082 -0.000244141C8.39998 0.174749 15.925 3.84972 21.3499 9.27474C26.9499 8.22474 32.0249 10.8498 33.9498 15.9247C31.6749 15.0497 29.0499 14.8747 26.4249 15.5747ZM9.79996 9.79975C8.39998 11.1997 8.39998 13.2997 9.79996 14.6997C11.1999 16.0997 13.3 16.0997 14.7 14.6997C16.0999 13.2997 16.0999 11.1997 14.7 9.79975C13.3 8.39969 11.1999 8.39969 9.79996 9.79975ZM30.7999 21.5247L34.4748 25.1997C35.1749 25.8996 35.1749 26.9497 34.4748 27.6496C33.7749 28.3496 32.7249 28.3496 32.0248 27.6496L28.3499 23.9747C27.6499 23.2746 27.6499 22.2246 28.3499 21.5247C29.0499 20.8247 30.0998 20.8247 30.7999 21.5247ZM23.9749 28.3496C23.2749 27.6496 22.225 27.6496 21.5249 28.3496C20.8249 29.0496 20.8249 30.0996 21.5249 30.7997L25.1999 34.4746C25.8999 35.1746 26.9499 35.1746 27.6499 34.4746C28.3499 33.7747 28.3499 32.7246 27.6499 32.0246L23.9749 28.3496ZM24.8499 25.0247C25.5499 24.3246 26.5999 24.3246 27.2999 25.0247L32.3749 30.0996C33.0748 30.7997 33.0748 31.8497 32.3749 32.5496C31.6749 33.2496 30.6249 33.2496 29.9249 32.5496L24.8499 27.4747C24.1499 26.7747 24.1499 25.7247 24.8499 25.0247Z" fill="#D22254"/>
</svg>
