<svg width="31" height="37" viewBox="0 0 31 37" fill="none" xmlns="http://www.w3.org/2000/svg">
<path fill-rule="evenodd" clip-rule="evenodd" d="M-0.000244141 0.289777L0.425776 36.9998L30.9999 36.7099L30.5739 -0.000183105L-0.000244141 0.289777ZM28.8803 35.0277L2.50586 35.2778L2.11935 1.96458L28.4938 1.71458L28.8803 35.0277ZM3.73007 4.79698L12.6045 4.71286L12.6159 5.69762L3.74149 5.78182L3.73007 4.79698ZM25.9663 8.51966L3.77573 8.7301L3.78719 9.71486L25.9777 9.50442L25.9663 8.51966ZM3.82142 12.6692L26.012 12.4587L26.0234 13.4435L3.83285 13.654L3.82142 12.6692ZM26.3898 31.8038L17.5154 31.888L17.5268 32.8727L26.4012 32.7886L26.3898 31.8038ZM4.22517 16.9488L26.4157 16.7383L26.4272 17.7231L4.2366 17.9336L4.22517 16.9488ZM5.99994 22.9998H14.1947C14.6394 22.9998 14.9998 23.3603 14.9998 23.8049V23.8759C14.9998 23.9932 14.9735 24.1116 14.9234 24.2184L13.1789 27.9255C13.0139 28.276 12.6612 28.4999 12.2737 28.4999H7.42916L7.42537 28.5064L7.42536 28.5064C7.41153 28.5302 7.39771 28.5539 7.37946 28.5752L6.58695 29.4998H13.7498C13.8879 29.4998 13.9999 29.6117 13.9999 29.7498V30.2499C13.9999 30.3879 13.8879 30.4998 13.7498 30.4998H6.58695C6.14713 30.4998 5.76558 30.2234 5.62985 29.7911C5.52374 29.4531 5.62754 29.0825 5.85813 28.8135L6.44153 28.1329L4.87954 22.9998H4.24982C4.11178 22.9998 3.99986 22.8878 3.99986 22.7498V22.2498C3.99986 22.1118 4.11178 21.9998 4.24982 21.9998H5.2499C5.46988 21.9998 5.66409 22.1436 5.72811 22.3542L5.92956 23.0161L5.94337 23.0117C5.96175 23.0057 5.98017 22.9998 5.99994 22.9998ZM6.99985 30.9998C7.55207 30.9998 7.99975 31.4475 7.99975 31.9998C7.99975 32.5521 7.55207 32.9999 6.99985 32.9999C6.44762 32.9999 5.99994 32.5521 5.99994 31.9998C5.99994 31.4475 6.44762 30.9998 6.99985 30.9998ZM13.9999 31.9998C13.9999 31.4475 13.5522 30.9998 12.9999 30.9998C12.4475 30.9998 11.9999 31.4475 11.9999 31.9998C11.9999 32.5521 12.4475 32.9999 12.9999 32.9999C13.5522 32.9999 13.9999 32.5521 13.9999 31.9998Z" fill="#D22254"/>
</svg>
