<svg width="53" height="31" viewBox="0 0 53 31" fill="none" xmlns="http://www.w3.org/2000/svg">
<path d="M0.139893 15.227C0.139893 8.85003 4.72416 1.33624 14.2666 1.33624C23.8089 1.33624 28.3932 8.84697 28.3932 15.2729C28.3932 21.6989 23.8089 29.2096 14.2666 29.2096C4.72416 29.2096 0.139893 21.6989 0.139893 15.2729V15.227V15.227ZM7.98157 15.3219C7.98157 19.1003 10.8651 21.8889 14.2666 21.8889C17.668 21.8889 20.5515 19.1003 20.5515 15.2729C20.5515 11.4455 17.671 8.65698 14.2666 8.65698C10.8651 8.65698 7.98157 11.4455 7.98157 15.2729V15.3219V15.3219Z" fill="#D20F49"/>
<path d="M37.957 29.6693C28.4851 29.6693 23.3738 22.2535 23.3738 15.2729V15.227C23.3738 8.27089 28.4851 0.879669 37.957 0.879669C47.4289 0.879669 52.5403 8.2954 52.5403 15.276C52.5403 22.2566 47.4289 29.6693 37.957 29.6693ZM37.957 9.11665C34.6904 9.11665 32.1317 11.8225 32.1317 15.2729V15.3189C32.1317 18.7448 34.6904 21.4292 37.957 21.4292C41.2236 21.4292 43.7824 18.7234 43.7824 15.2729C43.7824 11.8194 41.2236 9.11665 37.957 9.11665Z" fill="#333E42"/>
<path d="M37.9571 1.33625C47.4995 1.33625 52.0837 8.84698 52.0837 15.2729C52.0837 21.6989 47.4995 29.2096 37.9571 29.2096C28.4147 29.2096 23.8304 21.6989 23.8304 15.2729V15.227C23.8304 8.84698 28.4147 1.33625 37.9571 1.33625ZM37.9571 21.8889C41.3585 21.8889 44.2421 19.1003 44.2421 15.2729C44.2421 11.4456 41.3616 8.65699 37.9571 8.65699C34.5556 8.65699 31.6721 11.4456 31.6721 15.2729V15.3189C31.6721 19.1003 34.5556 21.8889 37.9571 21.8889ZM37.9571 0.420013C28.1879 0.420013 22.9172 8.04719 22.9172 15.2239V15.2699C22.9172 22.4711 28.1879 30.1228 37.9571 30.1228C47.7262 30.1228 53 22.4711 53 15.2699C53 8.07477 47.7262 0.420013 37.9571 0.420013ZM37.9571 20.9726C34.9448 20.9726 32.5883 18.4905 32.5883 15.3189V15.2729C32.5883 12.0768 34.9479 9.57323 37.9571 9.57323C40.9693 9.57323 43.3258 12.0768 43.3258 15.2729C43.3258 18.4691 40.9663 20.9726 37.9571 20.9726Z" fill="white"/>
</svg>
