<svg width="16" height="22" viewBox="0 0 16 22" fill="none" xmlns="http://www.w3.org/2000/svg">
<path fill-rule="evenodd" clip-rule="evenodd" d="M11 -0.000183105H5V2.55982H11V-0.000183105ZM4.80007 11.9699H3.60002V13.259H4.80007V11.9699ZM12.2001 1.27079V3.84887H3.80006V1.27079C3.28041 1.27079 0.802275 1.27079 0 1.27079V21.9997H16V1.27079C15.8671 1.27079 12.7435 1.27079 12.2001 1.27079ZM2.39999 5.35272H6.00001V9.22009H2.39999V5.35272ZM2.39999 10.6809H6.00001V14.5481H2.39999V10.6809ZM3.72007 19.6707L2.09587 17.9259L2.94437 17.0143L3.72007 17.8475L5.49586 15.94L6.34435 16.8517L3.72007 19.6707ZM13.6 18.5012H8.00001V17.2121H13.6V18.5012ZM13.6 13.259H8.00001V11.9699H13.6V13.259ZM13.6 7.93094H8.00001V6.64177H13.6V7.93094Z" fill="#323D41"/>
<path fill-rule="evenodd" clip-rule="evenodd" d="M3.59961 6.64178H4.79965V7.93096H3.59961V6.64178Z" fill="#323D41"/>
</svg>
