<svg width="24" height="28" viewBox="0 0 24 28" fill="none" xmlns="http://www.w3.org/2000/svg">
<path fill-rule="evenodd" clip-rule="evenodd" d="M9.85464 1.92945H14.7281V2.70975H16.4879V1.82022C16.4882 0.957089 15.7505 0.254639 14.8437 0.254639H9.73902C8.83222 0.254639 8.09454 0.957089 8.09454 1.82022V2.70975H9.85464V1.92945ZM20.5524 9.34485H4.0303C3.57764 9.34485 3.22121 9.7125 3.25766 10.1419L4.63891 26.3936C4.71595 27.301 5.51113 27.9996 6.46674 27.9996H18.1157C19.0712 27.9996 19.8666 27.301 19.9435 26.3934L21.3247 10.1419C21.3615 9.7125 21.0051 9.34485 20.5524 9.34485ZM8.03077 26.2663C8.01241 26.2673 7.99405 26.268 7.9757 26.268C7.51425 26.268 7.12693 25.926 7.09851 25.482L6.23276 12.1401C6.20304 11.6785 6.57193 11.2812 7.05699 11.2529C7.54046 11.2248 7.95973 11.5752 7.98945 12.0372L8.85492 25.3789C8.88489 25.8406 8.51582 26.2377 8.03077 26.2663ZM13.1812 25.4305C13.1812 25.8928 12.7873 26.2678 12.3011 26.2678C11.8151 26.2678 11.4211 25.8928 11.4211 25.4305V12.0886C11.4211 11.626 11.8151 11.2512 12.3011 11.2512C12.7871 11.2512 13.1812 11.626 13.1812 12.0886V25.4305ZM18.35 12.1377L17.5236 25.4797C17.4962 25.9246 17.1081 26.2678 16.6459 26.2678C16.6286 26.2678 16.6109 26.2673 16.5934 26.2665C16.1082 26.239 15.7381 25.843 15.7667 25.3812L16.5931 12.0393C16.6214 11.5775 17.0366 11.2253 17.523 11.2526C18.0084 11.2797 18.3785 11.6763 18.35 12.1377ZM23.5957 6.7608L23.0178 5.11233C22.8654 4.67769 22.4378 4.38456 21.9561 4.38456H2.62646C2.14481 4.38456 1.71716 4.67769 1.56501 5.11233L0.987029 6.7608C0.875489 7.07886 1.02072 7.40313 1.29144 7.5648C1.4016 7.63065 1.53217 7.67016 1.67582 7.67016H22.9071C23.0503 7.67016 23.1813 7.63065 23.2914 7.56459C23.5621 7.4028 23.7072 7.07865 23.5957 6.7608Z" fill="#D22254"/>
</svg>
